<?xml version="1.0" encoding="utf-8"?>
<!-- Generator: Adobe Illustrator 23.0.2, SVG Export Plug-In . SVG Version: 6.00 Build 0)  -->
<svg version="1.1" id="Layer_1" xmlns="http://www.w3.org/2000/svg" xmlns:xlink="http://www.w3.org/1999/xlink" x="0px" y="0px"
	 viewBox="0 0 256 256" style="enable-background:new 0 0 256 256;" xml:space="preserve">
<style type="text/css">
	.st0{display:none;fill:#FFFFFF;}
</style>
<g>
	<path class="st0" d="M267.8,202.9c-84.3,0-168.7,0-253,0c0-56,0-112,0-168c84.3,0,168.7,0,253,0
		C267.8,90.9,267.8,146.9,267.8,202.9z M235.8,143.8c-6.9,0-13.2,0-19.5,0c-1.5,0-3-0.2-4.4-0.6c-3.2-0.8-6.4-2.2-9.7-2.4
		c-8.6-0.3-17.1-0.1-26.6-0.1c7.7-13.4,10.8-26.8,8.5-41.1c-2.3-14.5-9.3-26.7-20.4-36.2c-18.5-15.9-46.1-19.2-67.1-6
		c-32.5,20.4-37,49.4-21.9,83.3c-8.2,0-16,0.1-23.8,0c-4.2,0-8.8,1.3-11.3-3.9c-0.2-0.4-1.1-0.7-1.7-0.7c-7.3,0-14.5,0-21.8,0
		c0,12.6,0,24.5,0,36.7c7.4,0,14.3,0.1,21.3-0.1c1,0,2.5-0.6,2.9-1.4c1.8-3.7,4.9-3.3,8.1-3.3c52,0,103.9,0,155.9,0
		c1.7,0,3.9,0.5,4.9-0.4c3.7-3.5,8.1-2.3,12.3-2.5c3.7-0.1,7.3-0.1,11,0c2.5,0.1,3.6-0.9,3.5-3.5C235.7,156,235.8,150.4,235.8,143.8
		z"/>
	<path d="M235.8,143.8c0,6.6-0.1,12.2,0,17.9c0.1,2.6-1,3.6-3.5,3.5c-3.7-0.1-7.3-0.1-11,0c-4.2,0.1-8.6-1-12.3,2.5
		c-0.9,0.9-3.2,0.4-4.9,0.4c-52,0-103.9,0-155.9,0c-3.2,0-6.4-0.3-8.1,3.3c-0.4,0.8-1.9,1.3-2.9,1.4c-7,0.1-13.9,0.1-21.3,0.1
		c0-12.2,0-24.1,0-36.7c7.3,0,14.5,0,21.8,0c0.6,0,1.5,0.3,1.7,0.7c2.5,5.2,7.2,3.8,11.3,3.9c7.8,0.1,15.6,0,23.8,0
		c-15.1-33.9-10.5-63,21.9-83.3c21-13.2,48.6-9.8,67.1,6c11.2,9.6,18.1,21.7,20.4,36.2c2.3,14.3-0.7,27.7-8.5,41.1
		c9.4,0,18-0.2,26.6,0.1c3.3,0.1,6.4,1.6,9.7,2.4c1.4,0.3,2.9,0.5,4.4,0.6C222.6,143.8,228.9,143.8,235.8,143.8z M164.3,146.6
		c2.1-2.9,3.7-5,5.2-7.1c12.6-18,12.9-41.9,0.8-60.2C158.1,61,136.1,51.9,115,56.3c-27.3,5.8-45.2,30.2-42.6,58
		c2.5,26.8,25.1,47.5,52.6,47.9c11.3,0.2,22.7,0,34,0.1c14.7,0,29.3-0.1,44,0.1c3.9,0,5.3-1.2,5.1-5.2c-0.4-12.4,1.5-10.4-10.6-10.6
		c-1.2,0-2.3,0-3.5,0C184.4,146.6,174.8,146.6,164.3,146.6z M97.6,162.3c-5.6-4.7-10.5-9-15.6-12.9c-1.8-1.4-4.2-2.6-6.4-2.7
		c-9-0.3-18,0-26.9-0.2c-3.6-0.1-4.9,0.9-4.9,4.7c0.1,11-0.1,11,11,11.1C68.9,162.3,83,162.3,97.6,162.3z M21.5,166.9
		c4.4,0,8.2-0.1,12,0c3.2,0.1,4.5-1.5,4.5-4.5c0-5.3,0.3-10.6-0.2-15.9c-0.1-1.6-2-4.1-3.4-4.3c-4.2-0.6-8.5-0.2-13-0.2
		C21.5,150.5,21.5,158.4,21.5,166.9z M222.2,149.4c-1,0-2,0.1-3,0c-4-0.6-5.5,0.9-5.4,5.2c0.1,3.9,1.1,5.5,5.1,5
		c2.1-0.3,4.3-0.3,6.5,0c4.2,0.5,4.9-1.5,5-5.2c0.1-4-1.2-5.5-5.1-5C224.2,149.6,223.2,149.4,222.2,149.4z"/>
	<path class="st0" d="M164.3,146.6c10.6,0,20.2,0,29.8,0c1.2,0,2.3,0,3.5,0c12.2,0.2,10.2-1.8,10.6,10.6c0.1,4-1.2,5.2-5.1,5.2
		c-14.7-0.2-29.3-0.1-44-0.1c-11.3,0-22.7,0.1-34-0.1c-27.5-0.5-50.1-21.1-52.6-47.9c-2.6-27.8,15.3-52.2,42.6-58
		c21.1-4.5,43.1,4.7,55.2,22.9c12.2,18.3,11.9,42.2-0.8,60.2C168,141.6,166.4,143.6,164.3,146.6z M163.3,108.7
		C163.3,87.7,146.4,71,125.5,71c-20.8,0-37.8,17.1-37.7,37.9c0.1,20.9,17,37.7,37.9,37.7C146.7,146.5,163.4,129.6,163.3,108.7z"/>
	<path class="st0" d="M97.6,162.3c-14.6,0-28.7,0-42.8,0c-11.1,0-10.9,0-11-11.1c0-3.8,1.2-4.8,4.9-4.7c9,0.2,18-0.1,26.9,0.2
		c2.2,0.1,4.6,1.3,6.4,2.7C87.2,153.3,92,157.6,97.6,162.3z"/>
	<path class="st0" d="M21.5,166.9c0-8.5,0-16.4,0-24.9c4.5,0,8.8-0.4,13,0.2c1.3,0.2,3.2,2.7,3.4,4.3c0.4,5.3,0.2,10.6,0.2,15.9
		c0,3-1.3,4.6-4.5,4.5C29.7,166.8,26,166.9,21.5,166.9z"/>
	<path class="st0" d="M222.2,149.4c1,0,2,0.1,3,0c3.9-0.6,5.2,1,5.1,5c-0.1,3.7-0.8,5.7-5,5.2c-2.1-0.3-4.3-0.3-6.5,0
		c-4,0.5-5-1.2-5.1-5c-0.1-4.3,1.4-5.7,5.4-5.2C220.2,149.6,221.2,149.4,222.2,149.4z"/>
	<path d="M163.3,108.7c0.1,21-16.7,37.8-37.7,37.9c-20.9,0.1-37.8-16.7-37.9-37.7C87.7,88.1,104.7,71,125.5,71
		C146.4,71,163.3,87.7,163.3,108.7z M93.7,108.8c0,17.6,14.2,31.8,31.8,31.9c17.8,0.1,32.1-14.4,32-32.2
		c-0.1-17.6-14.4-31.6-32-31.6C107.9,76.9,93.7,91.2,93.7,108.8z"/>
	<path class="st0" d="M93.7,108.8c0-17.6,14.2-31.9,31.7-31.9c17.7,0,31.9,14,32,31.6c0.1,17.8-14.2,32.2-32,32.2
		C107.9,140.6,93.7,126.4,93.7,108.8z"/>
</g>
</svg>
