<?xml version="1.0" encoding="utf-8"?>
<!-- Generator: Adobe Illustrator 22.1.0, SVG Export Plug-In . SVG Version: 6.00 Build 0)  -->
<svg version="1.1" id="Layer_1" xmlns="http://www.w3.org/2000/svg" xmlns:xlink="http://www.w3.org/1999/xlink" x="0px" y="0px"
	 viewBox="0 0 1920 664.9" style="enable-background:new 0 0 1920 664.9;" xml:space="preserve">
<style type="text/css">
	.st0{fill:#D9DADA;}
	.st1{fill:none;stroke:#898989;stroke-width:2.0126;stroke-miterlimit:10;}
	.st2{fill:none;stroke:#FEFEFE;stroke-width:3.9969;stroke-miterlimit:10;}
	.st3{fill-rule:evenodd;clip-rule:evenodd;fill:#727271;}
	.st4{fill-rule:evenodd;clip-rule:evenodd;fill:#FEFEFE;}
	.st5{fill:none;stroke:#727271;stroke-width:3.996;stroke-miterlimit:10;}
</style>
<title>asset2</title>
<polygon class="st0" points="1289.9,0 1918.5,0 1918.5,664.9 906,664.9 "/>
<g>
	<path class="st1" d="M0,585.2h1422.1c12.3,0,19.3-3.3,25.8-14.3l24.6-41.4c7.2-12,13.3-15.6,26.5-15.6l430.4-0.1"/>
	<path class="st2" d="M931.9,637.6h137.3c11.6,0,18.2-3.3,24.4-14.3l23.2-41.4c6.8-12,12.6-15.6,25-15.6l787.7-1.7"/>
	<polygon class="st3" points="1686.3,499.7 1742.8,499.7 1745.7,502.5 1745.7,524.2 1742.8,527 1686.3,527 1683.5,524.2 
		1683.5,502.5 	"/>
	<path class="st3" d="M1671.9,501.5h6.7v5.5h2.7v12.7h-2.7v5.5h-6.7l-2.6-2.5v-18.9L1671.9,501.5z M1747.9,507h2.6v-5.5h6.7l2.6,2.5
		v18.9l-2.6,2.5h-6.7v-5.5h-2.6V507z"/>
	<path class="st4" d="M1227.3,552.2h63.1l3.3,3.5v17.2l-3.3,3.5h-63.1l-3.3-3.5v-17.2L1227.3,552.2z M1261.4,510.5v8.1h6.1l1.5,1.7
		c0,3.4,0,0.7,0,4.1l-1.5,1.7h-17.3l-1.7-1.7c0-3.4,0-0.7,0-4.1l1.7-1.7h6.1v-8.1h-22.2l-1.5-1.7c0-3.4,0-0.7,0-4.1l1.5-1.7h22.6
		c0.4,0.9,1.3,1.8,2.5,1.8l0,0c1.1,0,2-0.8,2.4-1.8h21.9l1.5,1.7c0,3.4,0,0.7,0,4.1l-1.5,1.7H1261.4z M1251.7,528h14.3v14.5h1.5
		l1.5,1.8v5.9h-20.5v-5.9l1.7-1.8h1.5V528z"/>
</g>
<line class="st5" x1="920.9" y1="635.6" x2="0" y2="635.6"/>
</svg>
