<?xml version="1.0" encoding="utf-8"?>
<!-- Generator: Adobe Illustrator 23.0.2, SVG Export Plug-In . SVG Version: 6.00 Build 0)  -->
<svg version="1.1" id="Layer_1" xmlns="http://www.w3.org/2000/svg" xmlns:xlink="http://www.w3.org/1999/xlink" x="0px" y="0px"
	 viewBox="0 0 256 256" style="enable-background:new 0 0 256 256;" xml:space="preserve">
<style type="text/css">
	.st0{display:none;fill:#FFFFFF;}
</style>
<g>
	<path class="st0" d="M-25,280c0-87.3,0-174.7,0-262c102.7,0,205.3,0,308,0c0,87.3,0,174.7,0,262C180.3,280,77.7,280-25,280z
		 M157.1,204.5c13.1-1.3,13.1-1.3,13.1-13.6c0-11.2,0-11.2-12.8-13.5c0-6.2,0-12.4,0-18.9c6.5,0,12.8,0,19.3,0
		c0.1,1.7,0.2,3.2,0.3,4.6c0.3,5.7,2.6,8,8.4,8.2c1.7,0,3.3,0,5,0c11.6,0,11.9-0.2,12.8-11.8c0-0.3,0.3-0.5,0.8-1.3
		c5.1,0,10.6,0,16,0c7.1,0,9-1.9,9-8.8c0-11.3,0-22.7,0-34c0-7.6-1.9-9.4-9.4-9.5c-5.4,0-10.9,0-16.4,0c-0.1-1.9-0.2-3.1-0.3-4.2
		c-0.2-6.7-2.3-8.8-9.2-8.9c-1.5,0-3,0-4.5,0c-11,0-11.7,0.7-12.6,11.7c0,0.3-0.3,0.6-0.6,1c-6.1,0-12.3,0-18.8,0
		c0-6.6,0-12.8,0-19.2c1.6-0.1,2.9-0.3,4.2-0.3c6.5-0.3,8.5-2.4,8.6-8.9c0-1.5,0-3,0-4.5c0-11.6-0.2-11.9-11.8-12.9
		c-0.3,0-0.5-0.3-1.3-0.8c0-5.4,0-11,0-16.6c-0.1-6.3-2.1-8.3-8.4-8.3c-11.7,0-23.3,0-35,0c-6.9,0-8.7,1.9-8.8,9
		c0,5.4,0,10.9,0,16.5c-1.4,0.2-2.2,0.4-3,0.4c-8.6,0.4-10.1,1.9-10.1,10.5c0,1.2,0,2.3,0,3.5c0,10.9,0.5,11.4,11.4,12.2
		c0.4,0,0.9,0.4,1.3,0.6c0,6.3,0,12.5,0,19.2c-3.5,0-6.7,0-9.8,0c-3.1,0-6.2,0-9.2,0c-1.8-13.1-1.8-13.1-14.2-13.1
		c-10.5,0-10.5,0-13.1,13.1c-5.5,0-11.1-0.1-16.7,0c-6.3,0.1-8.8,2.6-8.9,8.8c-0.1,11.5-0.1,23,0,34.5c0,6.6,2.4,8.9,9.1,9
		c5.6,0,11.2,0,16.7,0c1.8,13.1,1.8,13.1,14.6,13.1c0.2,0,0.3,0,0.5,0c10,0,10.9-0.9,11.6-11.1c0-0.6,0.4-1.2,0.6-1.6
		c6.5,0,12.7,0,19.3,0c0,3.6,0,6.7,0,9.9c0,3.1,0,6.2,0,9.3c-2,0.1-3.1,0.2-4.3,0.2c-6.4,0.2-8.7,2.5-8.8,8.8c0,1.5,0,3,0,4.5
		c0,11.7,0,11.7,11.7,12.9c0.3,0,0.6,0.3,1.5,0.7c0,5.3,0,10.9,0,16.5c0.1,6.5,2.3,9,8.6,9c11.7,0.1,23.3,0.1,35,0
		c6.3-0.1,8.6-2.5,8.6-8.9C157.2,216,157.1,210.4,157.1,204.5z"/>
	<path d="M157.1,204.5c0,5.9,0,11.5,0,17.1c-0.1,6.4-2.3,8.9-8.6,8.9c-11.7,0.1-23.3,0.1-35,0c-6.2-0.1-8.5-2.6-8.6-9
		c-0.1-5.6,0-11.2,0-16.5c-0.9-0.5-1.2-0.7-1.5-0.7c-11.7-1.2-11.7-1.2-11.7-12.9c0-1.5,0-3,0-4.5c0.1-6.3,2.4-8.6,8.8-8.8
		c1.2,0,2.3-0.1,4.3-0.2c0-3.2,0-6.2,0-9.3c0-3.1,0-6.3,0-9.9c-6.6,0-12.8,0-19.3,0c-0.2,0.5-0.5,1-0.6,1.6
		c-0.6,10.2-1.6,11.1-11.6,11.1c-0.2,0-0.3,0-0.5,0c-12.8,0-12.8,0-14.6-13.1c-5.5,0-11.1,0-16.7,0c-6.7-0.1-9.1-2.4-9.1-9
		c-0.1-11.5-0.1-23,0-34.5c0-6.2,2.6-8.7,8.9-8.8c5.6-0.1,11.2,0,16.7,0c2.6-13.1,2.6-13.1,13.1-13.1c12.4,0,12.4,0,14.2,13.1
		c3,0,6.1,0,9.2,0c3.1,0,6.3,0,9.8,0c0-6.6,0-12.9,0-19.2c-0.4-0.2-0.9-0.6-1.3-0.6c-10.9-0.9-11.4-1.4-11.4-12.2c0-1.2,0-2.3,0-3.5
		c0-8.5,1.5-10.1,10.1-10.5c0.8,0,1.6-0.2,3-0.4c0-5.6,0-11,0-16.5c0-7.1,1.9-9,8.8-9c11.7,0,23.3,0,35,0c6.4,0,8.4,2,8.4,8.3
		c0.1,5.6,0,11.3,0,16.6c0.7,0.4,1,0.7,1.3,0.8c11.6,1,11.8,1.3,11.8,12.9c0,1.5,0,3,0,4.5c-0.1,6.5-2.1,8.6-8.6,8.9
		c-1.3,0.1-2.6,0.2-4.2,0.3c0,6.5,0,12.7,0,19.2c6.5,0,12.7,0,18.8,0c0.3-0.5,0.6-0.8,0.6-1c0.8-11.1,1.5-11.7,12.6-11.7
		c1.5,0,3,0,4.5,0c6.8,0.1,9,2.2,9.2,8.9c0,1.1,0.1,2.3,0.3,4.2c5.5,0,10.9,0,16.4,0c7.6,0.1,9.4,1.9,9.4,9.5c0,11.3,0,22.7,0,34
		c0,6.9-1.9,8.8-9,8.8c-5.5,0-10.9,0-16,0c-0.5,0.8-0.8,1-0.8,1.3c-1,11.6-1.2,11.8-12.8,11.8c-1.7,0-3.3,0-5,0
		c-5.8-0.2-8.1-2.5-8.4-8.2c-0.1-1.5-0.2-2.9-0.3-4.6c-6.5,0-12.8,0-19.3,0c0,6.5,0,12.8,0,18.9c12.8,2.3,12.8,2.3,12.8,13.5
		C170.2,203.2,170.2,203.2,157.1,204.5z M150.6,86.9c-13.4,0-26.1,0-38.9,0c0,6.4,0,12.2,0,18c0,7.1-0.6,7.8-7.6,7.8
		c-6.1,0-12.2,0-18.3,0c0,13.4,0,26.1,0,39c6.8,0,13.1,0.2,19.5-0.1c4.8-0.2,6.6,1.7,6.5,6.4c-0.2,6.4-0.1,12.9-0.1,19.6
		c13.2,0,25.7,0,38.9,0c0-6.3,0-12.4,0-18.6c0-7.1,0.3-7.4,7.3-7.4c6.2,0,12.5,0,18.6,0c0-13.5,0-26,0-39c-6.8,0-13.3-0.1-19.8,0
		c-4.5,0.1-6.3-1.8-6.1-6.3C150.7,100,150.6,93.6,150.6,86.9z M98.7,197.2c21.9,0,43.3,0,64.6,0c0-4.2,0-8.1,0-12
		c-21.7,0-43.1,0-64.6,0C98.7,189.3,98.7,193,98.7,197.2z M163.7,79c0-2.6-0.2-4.9,0.1-7.2c0.6-4.3-1.3-5.3-5.3-5.2
		c-12.1,0.2-24.3,0.1-36.4,0.1c-7.6,0-15.2,0-23.2,0c0,4.4,0,8.3,0,12.3C120.5,79,141.8,79,163.7,79z M65.9,164.5c4.4,0,8.2,0,12,0
		c0-21.7,0-43.1,0-64.5c-4.2,0-8.1,0-12,0C65.9,121.7,65.9,142.9,65.9,164.5z M196,164.6c0-21.7,0-43.2,0-64.7c-4.2,0-8,0-11.8,0
		c0,21.7,0,43.1,0,64.7C188.3,164.6,192,164.6,196,164.6z M150.2,59.4c0-6.6,0-12.6,0-18.8c-12.9,0-25.5,0-38.3,0
		c0,6.4,0,12.4,0,18.8C124.7,59.4,137.3,59.4,150.2,59.4z M39.6,112.9c0,12.9,0,25.6,0,38.5c6.4,0,12.4,0,18.6,0c0-13,0-25.6,0-38.5
		C52,112.9,46.2,112.9,39.6,112.9z M222.4,113.1c-6.5,0-12.5,0-18.6,0c0,13,0,25.7,0,38.4c6.4,0,12.3,0,18.6,0
		C222.4,138.6,222.4,126.1,222.4,113.1z M112,204.7c0,6.5,0,12.6,0,18.7c12.9,0,25.5,0,38.2,0c0-6.4,0-12.5,0-18.7
		C137.4,204.7,125,204.7,112,204.7z"/>
	<path class="st0" d="M150.6,86.9c0,6.7,0.2,13.1-0.1,19.6c-0.1,4.5,1.6,6.4,6.1,6.3c6.5-0.2,13,0,19.8,0c0,12.9,0,25.5,0,39
		c-6.1,0-12.4,0-18.6,0c-6.9,0-7.2,0.3-7.3,7.4c0,6.1,0,12.2,0,18.6c-13.2,0-25.8,0-38.9,0c0-6.7-0.2-13.2,0.1-19.6
		c0.2-4.7-1.7-6.6-6.5-6.4c-6.3,0.3-12.6,0.1-19.5,0.1c0-12.9,0-25.6,0-39c6.1,0,12.2,0,18.3,0c7,0,7.6-0.6,7.6-7.8
		c0-5.8,0-11.6,0-18C124.5,86.9,137.2,86.9,150.6,86.9z"/>
	<path class="st0" d="M98.7,197.2c0-4.1,0-7.9,0-12c21.6,0,42.9,0,64.6,0c0,3.9,0,7.8,0,12C142,197.2,120.6,197.2,98.7,197.2z"/>
	<path class="st0" d="M163.7,79c-21.9,0-43.3,0-64.9,0c0-4,0-7.9,0-12.3c8,0,15.6,0,23.2,0c12.1,0,24.3,0.2,36.4-0.1
		c4-0.1,5.9,0.9,5.3,5.2C163.5,74.1,163.7,76.4,163.7,79z"/>
	<path class="st0" d="M65.9,164.5c0-21.5,0-42.8,0-64.5c3.9,0,7.8,0,12,0c0,21.4,0,42.7,0,64.5C74.1,164.5,70.4,164.5,65.9,164.5z"
		/>
	<path class="st0" d="M196,164.6c-4,0-7.7,0-11.8,0c0-21.6,0-43,0-64.7c3.9,0,7.6,0,11.8,0C196,121.3,196,142.8,196,164.6z"/>
	<path class="st0" d="M150.2,59.4c-12.9,0-25.4,0-38.3,0c0-6.4,0-12.4,0-18.8c12.8,0,25.3,0,38.3,0
		C150.2,46.8,150.2,52.9,150.2,59.4z"/>
	<path class="st0" d="M39.6,112.9c6.6,0,12.4,0,18.6,0c0,12.8,0,25.5,0,38.5c-6.2,0-12.2,0-18.6,0C39.6,138.5,39.6,125.8,39.6,112.9
		z"/>
	<path class="st0" d="M222.4,113.1c0,13,0,25.5,0,38.4c-6.2,0-12.2,0-18.6,0c0-12.7,0-25.3,0-38.4
		C209.9,113.1,216,113.1,222.4,113.1z"/>
	<path class="st0" d="M112,204.7c12.9,0,25.4,0,38.2,0c0,6.3,0,12.3,0,18.7c-12.7,0-25.2,0-38.2,0C112,217.2,112,211.2,112,204.7z"
		/>
</g>
</svg>
