<?xml version="1.0" encoding="utf-8"?>
<!-- Generator: Adobe Illustrator 23.0.2, SVG Export Plug-In . SVG Version: 6.00 Build 0)  -->
<svg version="1.1" id="Layer_1" xmlns="http://www.w3.org/2000/svg" xmlns:xlink="http://www.w3.org/1999/xlink" x="0px" y="0px"
	 viewBox="0 0 256 256" style="enable-background:new 0 0 256 256;" xml:space="preserve">
<style type="text/css">
	.st0{display:none;fill:#FFFFFF;}
	.st1{fill:#FFFFFF;}
</style>
<g>
	<path class="st0" d="M275,240c-97.3,0-194.7,0-292,0c0-74,0-148,0-222c97.3,0,194.7,0,292,0C275,92,275,166,275,240z M91.7,213.3
		c29.9,0,59.4,0,89,0c0.9,11.6,1.8,12.5,12.9,12.5c11.7,0,11.9-0.2,13.8-12.9c5.2,0,10.5,0,15.8,0c6.7,0,9-2.3,9-9c0-11,0-22,0-33
		c0-7.1-2.1-9.3-9.2-9.4c-5.3-0.1-10.5,0-16,0c-0.1-1.6-0.2-2.6-0.3-3.6c-0.3-6.9-2.4-9-9.1-9c-2.7,0-5.3,0-8,0
		c-6.2,0.1-8.4,2.2-8.8,8.3c-0.1,1.3-0.2,2.6-0.3,4.1c-7.4,0-14.4,0-21.6,0c0-7.4,0-14.6,0-21.8c6.1-1.4,14.8,2.5,15.4-7.8
		c0.3-5,0.9-11.4-1.7-14.9c-2.4-3.2-8.9-3.4-14.2-5.1c0-1.6,0.2-4.1,0-6.6c-1.2-12.9,0.8-25,8-36.2c3.1-4.8,1.5-6.8-4.4-6.8
		c-7.5,0-14.9,0-22.6,0c0-3.5,0-6.3,0-9.7c2.2,0,4,0,5.8,0c10.5,0,21,0.1,31.5,0c6.2-0.1,10.2-3.7,10.4-9.1
		c0.2-5.6-3.8-9.9-10.2-9.9c-27.3-0.1-54.7-0.1-82,0c-6.5,0-10.4,4.1-10.2,9.8c0.1,5.4,4.1,9.1,10.3,9.2c10.7,0.1,21.3,0,32,0.1
		c1.8,0,3.6,0.2,5.3,0.2c0,3.4,0,6.3,0,9.5c-7.2,0-14.1,0-20.9,0c-8.3,0-9.7,1.6-5.2,8.4c8.9,13.2,7.6,27.7,6.9,42.5
		c-3.7,0.3-7.2,0.2-10.5,0.8c-4.1,0.8-5.4,4.1-5.1,8c0.4,4.9-0.6,11.1,2,14.3c2.4,3,8.8,2.9,13.7,4.2c0,6.5,0,13.6,0,20.6
		c-7.5,0-14.7,0-22,0c-0.1-1.3-0.1-2.1-0.2-2.9c-0.4-7.5-2.2-9.2-9.8-9.2c-2.5,0-5,0-7.5,0c-5.9,0.1-8,2.1-8.5,8.1
		c-0.1,1.3-0.2,2.6-0.3,3.7c-0.6,0.3-0.8,0.6-1.1,0.6c-5,0.1-10,0.1-15,0.2c-6.8,0.2-9,2.4-9,9.1c0,11,0,22,0,33
		c0,7.1,2.2,9.3,9.2,9.4c5.3,0,10.6,0,15.8,0c1.6,11.7,2.6,12.8,10.4,12.9C89.9,225.9,89.9,225.9,91.7,213.3z"/>
	<path d="M91.7,213.3c-1.8,12.5-1.8,12.5-16.4,12.5c-7.8,0-8.8-1.2-10.4-12.9c-5.2,0-10.5,0-15.8,0c-7,0-9.2-2.3-9.2-9.4
		c0-11,0-22,0-33c0-6.7,2.2-8.9,9-9.1c5-0.1,10-0.1,15-0.2c0.3,0,0.6-0.3,1.1-0.6c0.1-1.1,0.2-2.4,0.3-3.7c0.5-6,2.5-8,8.5-8.1
		c2.5,0,5,0,7.5,0c7.7,0,9.4,1.7,9.8,9.2c0,0.8,0.1,1.6,0.2,2.9c7.3,0,14.5,0,22,0c0-7,0-14.1,0-20.6c-4.9-1.3-11.3-1.2-13.7-4.2
		c-2.6-3.2-1.6-9.4-2-14.3c-0.3-3.9,1-7.2,5.1-8c3.4-0.7,6.9-0.6,10.5-0.8c0.7-14.8,2-29.3-6.9-42.5c-4.6-6.8-3.2-8.4,5.2-8.4
		c6.8,0,13.6,0,20.9,0c0-3.2,0-6.1,0-9.5c-1.7-0.1-3.5-0.2-5.3-0.2c-10.7,0-21.3,0.1-32-0.1c-6.2-0.1-10.2-3.8-10.3-9.2
		c-0.1-5.7,3.8-9.8,10.2-9.8c27.3-0.1,54.7-0.1,82,0c6.4,0,10.4,4.3,10.2,9.9c-0.2,5.4-4.2,9-10.4,9.1c-10.5,0.1-21,0-31.5,0
		c-1.8,0-3.6,0-5.8,0c0,3.4,0,6.3,0,9.7c7.7,0,15.1,0,22.6,0c5.9,0,7.5,2,4.4,6.8c-7.2,11.2-9.2,23.3-8,36.2c0.2,2.5,0,4.9,0,6.6
		c5.3,1.7,11.8,1.9,14.2,5.1c2.6,3.5,2,9.8,1.7,14.9c-0.7,10.3-9.3,6.4-15.4,7.8c0,7.2,0,14.4,0,21.8c7.1,0,14.2,0,21.6,0
		c0.1-1.5,0.3-2.8,0.3-4.1c0.3-6.1,2.5-8.2,8.8-8.3c2.7,0,5.3,0,8,0c6.7,0.1,8.8,2.1,9.1,9c0,1,0.1,1.9,0.3,3.6c5.4,0,10.7-0.1,16,0
		c7.1,0.2,9.2,2.3,9.2,9.4c0,11,0,22,0,33c0,6.7-2.4,9-9,9c-5.3,0-10.6,0-15.8,0c-1.9,12.7-2.2,12.9-13.8,12.9
		c-11.1,0-12-0.9-12.9-12.5C151.2,213.3,121.6,213.3,91.7,213.3z M180.5,206.2c0-12.9,0-25.4,0-37.8c-29.9,0-59.3,0-88.9,0
		c0,12.7,0,25.1,0,37.8C121.4,206.2,150.9,206.2,180.5,206.2z M104.3,132.2c21.4,0,42.4,0,63.3,0c0-4.3,0-8.2,0-11.9
		c-21.3,0-42.2,0-63.3,0C104.3,124.4,104.3,128,104.3,132.2z M84.5,219.1c0-21.6,0-42.5,0-63.6c-4.2,0-8.1,0-12.1,0
		c0,21.4,0,42.4,0,63.6C76.5,219.1,80.3,219.1,84.5,219.1z M200,155.4c-4.4,0-8.1,0-12.2,0c0,21.3,0,42.4,0,63.6c4.2,0,8.1,0,12.2,0
		C200,197.6,200,176.8,200,155.4z M151.8,88.1c-10.7,0-20.9,0-31.3,0c0,8.5,0,16.7,0,24.9c10.6,0,20.8,0,31.3,0
		C151.8,104.7,151.8,96.6,151.8,88.1z M207,206.1c6.5,0,12.6,0,18.6,0c0-12.8,0-25.2,0-37.7c-6.4,0-12.4,0-18.6,0
		C207,181.1,207,193.4,207,206.1z M64.9,206.2c0-12.9,0-25.4,0-37.8c-6.4,0-12.3,0-18.3,0c0,12.8,0,25.1,0,37.8
		C52.7,206.2,58.7,206.2,64.9,206.2z M151.7,161.1c0-7.3,0-14.4,0-21.6c-10.6,0-20.8,0-31.3,0c0,7.3,0,14.4,0,21.6
		C131,161.1,141.3,161.1,151.7,161.1z M136,46c13,0,26,0,38.9,0c2.4,0,5.6,0.5,5.7-3c0.1-3.6-3.1-3.3-5.6-3.3
		c-26,0-51.9-0.1-77.9,0.1c-2,0-5.4,1.8-5.6,3c-0.4,3.5,2.9,3.2,5.4,3.2C110.1,46,123.1,46,136,46z M112.7,68.8
		c1.8,3.6,3.1,6.8,4.9,9.7c0.9,1.4,3,2.7,4.5,2.7c9.3,0.3,18.6,0.2,27.9,0.1c1.3,0,3.3-0.5,3.8-1.4c2-3.3,3.6-7,5.5-11
		C143.6,68.8,128.5,68.8,112.7,68.8z"/>
	<path class="st0" d="M180.5,206.2c-29.6,0-59.1,0-88.9,0c0-12.7,0-25.1,0-37.8c29.7,0,59.1,0,88.9,0
		C180.5,180.8,180.5,193.3,180.5,206.2z"/>
	<path class="st0" d="M104.3,132.2c0-4.2,0-7.9,0-11.9c21.1,0,42,0,63.3,0c0,3.7,0,7.6,0,11.9C146.7,132.2,125.7,132.2,104.3,132.2z
		"/>
	<path class="st0" d="M84.5,219.1c-4.2,0-7.9,0-12.1,0c0-21.2,0-42.2,0-63.6c4,0,7.9,0,12.1,0C84.5,176.6,84.5,197.5,84.5,219.1z"/>
	<path class="st0" d="M200,155.4c0,21.4,0,42.3,0,63.6c-4.1,0-8,0-12.2,0c0-21.2,0-42.2,0-63.6C191.9,155.4,195.6,155.4,200,155.4z"
		/>
	<path class="st0" d="M151.8,88.1c0,8.5,0,16.6,0,24.9c-10.5,0-20.7,0-31.3,0c0-8.3,0-16.5,0-24.9C130.9,88.1,141.1,88.1,151.8,88.1
		z"/>
	<path class="st0" d="M207,206.1c0-12.7,0-25,0-37.7c6.2,0,12.2,0,18.6,0c0,12.5,0,24.9,0,37.7C219.6,206.1,213.6,206.1,207,206.1z"
		/>
	<path class="st1" d="M64.9,206.2c-6.2,0-12.1,0-18.3,0c0-12.7,0-25.1,0-37.8c6.1,0,12,0,18.3,0C64.9,180.8,64.9,193.3,64.9,206.2z"
		/>
	<path class="st1" d="M151.7,161.1c-10.5,0-20.7,0-31.3,0c0-7.2,0-14.3,0-21.6c10.5,0,20.7,0,31.3,0
		C151.7,146.7,151.7,153.8,151.7,161.1z"/>
	<path class="st0" d="M136,46c-13,0-26,0-38.9,0c-2.5,0-5.8,0.3-5.4-3.2c0.1-1.2,3.6-3,5.6-3c26-0.2,51.9-0.1,77.9-0.1
		c2.5,0,5.7-0.3,5.6,3.3c-0.1,3.6-3.3,3-5.7,3C162,46,149,46,136,46z"/>
	<path class="st0" d="M112.7,68.8c15.8,0,30.9,0,46.7,0c-2,4-3.5,7.7-5.5,11c-0.6,0.9-2.5,1.4-3.8,1.4c-9.3,0.1-18.6,0.2-27.9-0.1
		c-1.6,0-3.6-1.4-4.5-2.7C115.8,75.6,114.5,72.4,112.7,68.8z"/>
</g>
</svg>
