<?xml version="1.0" encoding="iso-8859-1"?>
<!-- Generator: Adobe Illustrator 19.0.0, SVG Export Plug-In . SVG Version: 6.00 Build 0)  -->
<svg version="1.1" id="Layer_1" xmlns="http://www.w3.org/2000/svg" xmlns:xlink="http://www.w3.org/1999/xlink" x="0px" y="0px"
	 viewBox="0 0 512 512" style="enable-background:new 0 0 512 512;" xml:space="preserve">
<g>
	<g>
		<g>
			<path d="M238.933,255.998c0,9.412,7.654,17.067,17.067,17.067c9.412,0,17.067-7.654,17.067-17.067
				c0-9.412-7.654-17.067-17.067-17.067C246.588,238.932,238.933,246.586,238.933,255.998z"/>
			<path d="M264.533,196.949v26.129c14.686,3.814,25.6,17.067,25.6,32.922c0,18.825-15.309,34.133-34.133,34.133
				c-18.825,0-34.133-15.309-34.133-34.133c0-15.855,10.914-29.107,25.6-32.922v-26.129c-28.902,4.164-51.2,29.013-51.2,59.051
				c0,32.93,26.803,59.733,59.733,59.733c32.93,0,59.733-26.803,59.733-59.733C315.733,225.962,293.436,201.113,264.533,196.949z"/>
			<path d="M493.798,187.733H460.8v-15.932c0-10.035-8.166-18.202-18.202-18.202h-31.864c-10.035,0-18.202,8.166-18.202,18.202
				v15.932h-38.63c-21.623-30.899-57.412-51.2-97.903-51.2s-76.279,20.301-97.903,51.2h-38.63v-15.932
				c0-10.035-8.166-18.202-18.202-18.202H69.402c-10.035,0-18.202,8.166-18.202,18.202v15.932H18.202
				C8.166,187.733,0,195.9,0,205.935v100.13c0,10.035,8.166,18.202,18.202,18.202H51.2v15.932c0,10.035,8.166,18.202,18.202,18.202
				h31.863c10.035,0,18.202-8.166,18.202-18.202v-15.932h38.63c21.623,30.899,57.412,51.2,97.903,51.2s76.279-20.301,97.903-51.2
				h38.63v15.932c0,10.035,8.166,18.202,18.202,18.202h31.864c10.035,0,18.202-8.166,18.202-18.202v-15.932h32.998
				c10.035,0,18.202-8.166,18.202-18.202v-100.13C512,195.9,503.834,187.733,493.798,187.733z M102.4,196.267v119.467v24.465
				c0,0.623-0.512,1.135-1.135,1.135H69.402c-0.623,0-1.135-0.512-1.135-1.135v-24.465V196.267v-24.465
				c0-0.631,0.512-1.135,1.135-1.135h31.863c0.623,0,1.135,0.503,1.135,1.135V196.267z M137.25,268.851
				c0.111,0.981,0.316,1.937,0.452,2.91c0.427,3.294,0.939,6.554,1.638,9.754c0.23,1.067,0.555,2.099,0.819,3.157
				c0.768,3.106,1.613,6.187,2.62,9.19c0.358,1.05,0.759,2.074,1.143,3.115c1.101,2.995,2.304,5.956,3.635,8.841
				c0.205,0.444,0.35,0.93,0.563,1.382h-28.655V204.8h28.655c-0.213,0.452-0.358,0.93-0.563,1.382
				c-1.331,2.884-2.534,5.837-3.635,8.841c-0.384,1.033-0.785,2.057-1.143,3.106c-1.007,3.012-1.843,6.084-2.62,9.19
				c-0.256,1.058-0.589,2.099-0.819,3.166c-0.7,3.191-1.212,6.451-1.638,9.737c-0.137,0.981-0.341,1.946-0.452,2.927
				c-0.452,4.224-0.717,8.508-0.717,12.851C136.533,260.343,136.798,264.627,137.25,268.851z M256,332.8
				c-42.351,0-76.8-34.449-76.8-76.8s34.449-76.8,76.8-76.8c42.351,0,76.8,34.449,76.8,76.8S298.351,332.8,256,332.8z
				 M392.533,307.2h-28.655c0.213-0.452,0.358-0.939,0.563-1.382c1.331-2.884,2.534-5.845,3.635-8.841
				c0.384-1.041,0.785-2.065,1.143-3.115c1.007-3.004,1.852-6.084,2.62-9.19c0.265-1.058,0.589-2.091,0.819-3.157
				c0.7-3.2,1.203-6.46,1.638-9.754c0.137-0.973,0.341-1.929,0.452-2.91c0.452-4.224,0.717-8.508,0.717-12.851
				c0-4.343-0.265-8.627-0.717-12.851c-0.111-0.981-0.316-1.946-0.452-2.927c-0.435-3.285-0.939-6.545-1.638-9.737
				c-0.23-1.067-0.563-2.108-0.819-3.166c-0.777-3.106-1.613-6.178-2.62-9.19c-0.358-1.05-0.759-2.074-1.143-3.106
				c-1.101-3.004-2.304-5.956-3.635-8.841c-0.205-0.452-0.35-0.93-0.563-1.382h28.655V307.2z M443.733,196.267v119.467v24.465
				c0,0.623-0.512,1.135-1.135,1.135h-31.864c-0.623,0-1.135-0.512-1.135-1.135v-24.465V196.267v-24.465
				c0-0.631,0.512-1.135,1.135-1.135h31.864c0.623,0,1.135,0.503,1.135,1.135V196.267z"/>
		</g>
	</g>
</g>
<g>
</g>
<g>
</g>
<g>
</g>
<g>
</g>
<g>
</g>
<g>
</g>
<g>
</g>
<g>
</g>
<g>
</g>
<g>
</g>
<g>
</g>
<g>
</g>
<g>
</g>
<g>
</g>
<g>
</g>
</svg>
