<svg id="Layer_5" data-name="Layer 5" xmlns="http://www.w3.org/2000/svg" xmlns:xlink="http://www.w3.org/1999/xlink" viewBox="0 0 1501.5 602.15"><defs><clipPath id="clip-path" transform="translate(-355.28 -110.87)"><text transform="translate(388.59 573.3)" style="font-size:328.6194152832031px;fill:none;font-family:AnandaBlack, Ananda Black">Spectate</text></clipPath></defs><title>animate</title><g style="clip-path:url(#clip-path)"><polyline points="277.22 294.63 349.22 206.63 328.22 171.63 243.22 182.63 177.22 223.63 170.22 294.63 235.22 384.63 235.22 428.63 213.22 462.63 170.22 485.63 111.22 494.63 50.22 468.63 39.22 419.63 98.22 354.63" style="fill:none;stroke:#000;stroke-miterlimit:10;stroke-width:72px"/><path d="M599.5,707.5l9-58,22-70,74-191-13,66,53-22s38-18,48-9,17,48,6,69-44,63-60,67-66,8-66-6-7-21-7-21" transform="translate(-355.28 -110.87)" style="fill:none;stroke:#000;stroke-miterlimit:10;stroke-width:72px"/><path d="M855.5,515.5l69-43,21-28-13-24-57,9-42,86,11,48s20,8,25,8,37-12,51-18,45-58,45-58l55-63s8-13,40-12,16,38,16,38l-11-6,1-20h-28s-65,54-60,73c0,0-20,35-6,48s58,18,58,18l59-65,41-34,57-148-34,64-54,17,156-45-101,69-52,118,3,13,22,5,62.77-58.72,12.23-34.28,39-40,39-14,31,1,11,38-111,28-17,54v21l30,5,20-12,42-38,23-35-12,59-3,24,16,8,25-18,29.11-38.38,15.89-22.62,42-63,14.72-29.75,33.28-67.25-50.06,56-28,7.85L1522.5,365.5l-75,35-36,65-24,56-9,32s1,27,14,18,47-38,47-38l40-46,43-55,43-11,17,8s-6.06,32.17-11.53,42.58-38.47,29.42-38.47,29.42l-27.91,13.62L1493.5,525.5l-16,28s20,22,26,20,52-18,60-27,61-92,61-92" transform="translate(-355.28 -110.87)" style="fill:none;stroke:#000;stroke-miterlimit:10;stroke-width:72px"/></g></svg>