<svg id="Layer_1" data-name="Layer 1" xmlns="http://www.w3.org/2000/svg" viewBox="0 0 200.03 200.03">
  <defs>
    <style>
      .cls-1 {
        opacity: 0.03;
      }

      .cls-2 {
        fill: #bf1919;
      }

      .cls-3 {
        fill: #bfbfbf;
      }

      .cls-4 {
        fill: #00000e;
      }

      .cls-5 {
        fill: #fff;
      }

      .cls-6 {
        fill: #ff5959;
      }

      .cls-7 {
        fill: #29264e;
      }
    </style>
  </defs>
  <title>bg-pat1</title>
  <g class="cls-1">
    <polygon class="cls-2" points="175.03 100.02 200.03 100.02 88.03 0.02 88.06 0 63.05 0 63.03 0.02 175.03 100.02"/>
    <polygon class="cls-3" points="150.03 100.02 175.03 100.02 63.03 0.02 63.05 0 38.05 0 38.03 0.02 150.03 100.02"/>
    <polygon class="cls-4" points="125.03 100.02 150.03 100.02 38.03 0.02 38.05 0 13.05 0 13.03 0.02 125.03 100.02"/>
    <polygon class="cls-2" points="100.03 100.02 0 10.71 0 33.03 75.03 100.02 100.03 100.02"/>
    <polygon class="cls-3" points="75.03 100.02 0 33.03 0 55.35 50.03 100.02 75.03 100.02"/>
    <polygon class="cls-3" points="125.03 100.02 13.03 0.02 13.05 0 0 0 0 10.71 100.03 100.02 125.03 100.02"/>
    <polygon class="cls-3" points="200.03 10.73 200.03 0 188.06 0 188.03 0.02 200.03 10.73"/>
    <polygon class="cls-5" points="200.03 200.03 200.03 189.31 188.03 200.03 200.03 200.03"/>
    <polygon class="cls-2" points="200.03 33.06 200.03 10.73 188.03 0.02 188.06 0 163.06 0 163.03 0.02 200.03 33.06"/>
    <polygon class="cls-3" points="200.03 55.38 200.03 33.06 163.03 0.02 163.06 0 138.06 0 138.03 0.02 200.03 55.38"/>
    <polygon class="cls-4" points="200.03 77.7 200.03 55.38 138.03 0.02 138.06 0 113.06 0 113.03 0.02 200.03 77.7"/>
    <polygon class="cls-3" points="200.03 100.02 200.03 77.7 113.03 0.02 113.06 0 88.06 0 88.03 0.02 200.03 100.02"/>
    <polygon class="cls-6" points="175.03 100.02 63.03 200.03 88.03 200.03 200.03 100.02 175.03 100.02"/>
    <polygon class="cls-5" points="150.03 100.02 38.03 200.03 63.03 200.03 175.03 100.02 150.03 100.02"/>
    <polygon class="cls-5" points="200.03 100.02 88.03 200.03 113.03 200.03 200.03 122.34 200.03 100.02"/>
    <polygon class="cls-6" points="200.03 189.31 200.03 166.99 163.03 200.03 188.03 200.03 200.03 189.31"/>
    <polygon class="cls-7" points="200.03 122.34 113.03 200.03 138.03 200.03 200.03 144.66 200.03 122.34"/>
    <polygon class="cls-7" points="125.03 100.02 13.03 200.03 38.03 200.03 150.03 100.02 125.03 100.02"/>
    <polygon class="cls-4" points="50.03 100.02 0 55.35 0 77.67 25.03 100.02 50.03 100.02"/>
    <polygon class="cls-5" points="200.03 144.66 138.03 200.03 163.03 200.03 200.03 166.99 200.03 144.66"/>
    <polygon class="cls-7" points="25.03 100.02 0 122.37 0 144.69 50.03 100.02 25.03 100.02"/>
    <polygon class="cls-5" points="100.03 100.02 0 189.34 0 200.03 13.03 200.03 125.03 100.02 100.03 100.02"/>
    <polygon class="cls-6" points="75.03 100.02 0 167.02 0 189.34 100.03 100.02 75.03 100.02"/>
    <polygon class="cls-5" points="50.03 100.02 0 144.69 0 167.02 75.03 100.02 50.03 100.02"/>
    <polygon class="cls-5" points="0.03 100.02 0 100.05 0 122.37 25.03 100.02 0.03 100.02"/>
    <polygon class="cls-3" points="25.03 100.02 0 77.67 0 99.99 0.03 100.02 25.03 100.02"/>
  </g>
</svg>
