<?xml version="1.0" encoding="utf-8"?>
<!-- Generator: Adobe Illustrator 23.0.2, SVG Export Plug-In . SVG Version: 6.00 Build 0)  -->
<svg version="1.1" xmlns="http://www.w3.org/2000/svg" xmlns:xlink="http://www.w3.org/1999/xlink" x="0px" y="0px"
	 viewBox="0 0 1920 350" style="enable-background:new 0 0 1920 350;" xml:space="preserve">
<style type="text/css">
	.st0{display:none;}
	.st1{display:inline;fill:none;stroke:#FFFFFF;stroke-width:5;stroke-miterlimit:10;}
	.st2{fill:none;stroke:#FFFFFF;stroke-width:5;stroke-miterlimit:10;}
	.st3{fill:#FEFEFE;}
	.st4{fill:none;stroke:#898989;stroke-width:5;}
	.st5{fill-rule:evenodd;clip-rule:evenodd;fill:#727271;}
</style>
<g id="Layer_1">
</g>
<g id="Layer_2">
	<g id="white-pipe">
		<g id="left-pipe" class="st0">
			<path class="st1" d="M970,205h-94.4C700.8,210,803,84.5,722.4,77L0,71l0,0"/>
		</g>
		<g id="w-pipe">
			<path class="st2" d="M1921,344.9H571c-22.4,0-44-6.8-59.8-18.9l-101.9-77.7c-15.9-12.1-37.4-18.9-59.9-18.9L0,230"/>
		</g>
		<g id="instrument">
			<path class="st3" d="M236.1,218.2h-51.2l-2.6,3v14.6l2.6,3h51.2l2.6-3v-14.6L236.1,218.2z M208.4,183v6.8h-5l-1.3,1.4v3.5
				l1.3,1.4h14.2l1.3-1.4v-3.5l-1.3-1.4h-5v-6.7h18.1l1.3-1.5v-3.3l-1.3-1.5h-18.4c-0.3,0.9-1,1.5-1.9,1.5l0,0
				c-0.9,0-1.6-0.6-1.9-1.5h-17.8l-1.3,1.5v3.4l1.3,1.5L208.4,183z M216.3,197.7h-11.5V210h-1.3l-1.3,1.4v5h16.6v-5l-1.3-1.4h-1.3
				v-12.3H216.3z"/>
		</g>
	</g>
	<g id="grey-pipe">
		<path id="g-pipe" class="st4" d="M-2,301h504c12,0,19-3,26-14l24-41c8-12,14-16,27-16h1351"/>
		<polygon id="instrument_2_" class="st5" points="1686,216 1743,216 1746,219 1746,240 1743,243 1686,243 1684,240 1684,219 		"/>
		<path id="instrument_1_" class="st5" d="M1672,218h7v5h2v13h-2v5h-7l-3-2v-19L1672,218z M1748,223h3v-5h6l3,2v19l-3,2h-6v-5h-3
			V223z"/>
	</g>
</g>
</svg>
