<svg xmlns="http://www.w3.org/2000/svg" viewBox="0 0 299.53 246.14"><defs><style>.cls-1{fill:#fff;}</style></defs><title>Asset 2</title><g id="Layer_2" data-name="Layer 2"><g id="Layer_1-2" data-name="Layer 1"><path class="cls-1" d="M300.15,0H.62V246.14H300.15ZM153.41,232.16v0H105.07c-4,0-6-2-6.1-6-.06-4.41,0-8.81,0-13.21,0-4.59,1.61-6.27,6.25-6.54,5.12-.3,7.18-2.42,7.2-7.56q0-14.55,0-29.12c0-4.59-.31-4.94-4.93-5q-14.72,0-29.42,0c-5.71,0-7.19,1.48-7.44,7.23-.16,3.86-1.84,5.68-5.74,5.8-4.8.14-9.6.13-14.4.08-3.69,0-5.6-2-5.6-5.93q0-48.34,0-96.67c0-3.76,1.77-5.48,5.55-5.54,4.6-.07,9.21-.05,13.81,0s6.22,1.77,6.37,6.36c.13,4.31,2.11,6.61,6.4,6.67,10.4.15,20.81.11,31.22,0,3.37,0,4.14-1,4.15-4.45q0-14.72,0-29.42c0-5.59-1.63-7.21-7.27-7.47-3.92-.19-6.1-2.32-6.16-6.21-.07-4.7,0-9.4,0-14.11a5.27,5.27,0,0,1,3.59-5.34,14.17,14.17,0,0,1,5-.61q41.88,0,83.76,0c3.31,0,6.61-.09,9.91,0,4.29.14,6.39,2.33,6.44,6.58.05,4,0,8,0,12,0,5.81-1.52,7.35-7.44,7.7-4.09.25-6.06,2.32-6.08,6.54q-.06,14.72,0,29.42c0,4.61.68,5.35,5.45,5.39q14.56.12,29.12,0c5.05,0,7.13-2.26,7.27-7.4.1-3.87,1.79-5.59,5.75-5.66,4.4-.07,8.8,0,13.21,0,5.3,0,6.79,1.52,6.79,6.77v85.86c0,3.5.07,7-.1,10.5a5,5,0,0,1-5.22,5c-4.4,0-8.81.1-13.21,0-5.71-.09-7-1.45-7.23-7.09-.13-3.83-2.13-6-6-6q-15.9-.11-31.82,0c-3.58,0-4.07.64-4.07,4.31q0,14.26,0,28.52c0,6.5,1.63,8.24,8.19,8.82,3.43.3,5.34,2.38,5.37,5.93,0,4.2-.29,8.43.06,12.6.38,4.63-2.78,7.41-7.48,7.33C184.63,232,169,232.16,153.41,232.16Z" transform="translate(-0.62)"/><path d="M153.41,232.16c15.61,0,31.22-.15,46.83.09,4.7.08,7.86-2.7,7.48-7.33-.35-4.17,0-8.4-.06-12.6,0-3.55-1.94-5.63-5.37-5.93-6.56-.58-8.18-2.32-8.19-8.82q0-14.25,0-28.52c0-3.67.49-4.29,4.07-4.31q15.92-.11,31.82,0c3.82,0,5.82,2.16,6,6,.2,5.64,1.52,7,7.23,7.09,4.4.08,8.81,0,13.21,0a5,5,0,0,0,5.22-5c.17-3.5.1-7,.1-10.5V76.43c0-5.25-1.49-6.76-6.79-6.77-4.41,0-8.81,0-13.21,0-4,.07-5.65,1.79-5.75,5.66-.14,5.14-2.22,7.36-7.27,7.4q-14.56.1-29.12,0c-4.77,0-5.45-.78-5.45-5.39q0-14.72,0-29.42c0-4.22,2-6.29,6.08-6.54,5.92-.35,7.42-1.89,7.44-7.7,0-4,0-8,0-12,0-4.25-2.15-6.44-6.44-6.58-3.3-.1-6.6,0-9.91,0q-41.88,0-83.76,0a14.17,14.17,0,0,0-5,.61,5.27,5.27,0,0,0-3.59,5.34c.07,4.71,0,9.41,0,14.11.06,3.89,2.24,6,6.16,6.21,5.64.26,7.26,1.88,7.27,7.47q0,14.71,0,29.42c0,3.44-.78,4.42-4.15,4.45-10.41.09-20.82.13-31.22,0-4.29-.06-6.27-2.36-6.4-6.67-.15-4.59-1.87-6.33-6.37-6.36s-9.21,0-13.81,0c-3.78.06-5.55,1.78-5.55,5.54q-.06,48.33,0,96.67c0,3.9,1.91,5.89,5.6,5.93,4.8.05,9.6.06,14.4-.08,3.9-.12,5.58-1.94,5.74-5.8.25-5.75,1.73-7.21,7.44-7.23q14.7,0,29.42,0c4.62,0,4.93.37,4.93,5q0,14.57,0,29.12c0,5.14-2.08,7.26-7.2,7.56-4.64.27-6.25,1.95-6.25,6.54,0,4.4-.06,8.8,0,13.21,0,4.06,2.12,6,6.1,6h48.34ZM99.08,100.07c-7.09,0-14.19,0-21.29,0-2.05,0-3.77-.41-4-3-.24-3.18.6-4.19,4.2-4.2,12.79,0,25.58,0,38.37,0,5.36,0,5.71-.37,5.74-5.85V83.69c0-11.7,0-23.39,0-35.08,0-3.3,1-4.21,4-4.33s3.33,1.95,3.33,4.16c0,13.59.12,27.18,0,40.77-.09,7-4.28,10.81-11.43,10.85C111.68,100.1,105.38,100.07,99.08,100.07Zm23.06,83.54c0-5.09.1-10.18,0-15.27-.08-2.88,1.45-3.57,3.89-3.66,2.59-.09,3.54,1.08,3.52,3.61-.06,10.18,0,20.36,0,30.54,0,2.28-.49,4-3.27,3.89-2.51-.08-4.19-.81-4.12-3.84C122.25,193.8,122.15,188.7,122.14,183.61Zm91-83.56h0c-5.1,0-10.19,0-15.29,0-2.44,0-3.88-.67-3.84-3.61s1.45-3.6,3.9-3.59c10.29,0,20.59,0,30.88,0,2.16,0,4,.44,4,3.27s-1.34,4-4,4C223.56,100,218.37,100.05,213.17,100.05ZM57.48,93.19h0c-2.49,0-5,0-7.47,0-1.87,0-2.68-1.11-2.54-2.92s-.24-4,2.41-4q7.62-.18,15.24,0c2.55.06,2.78,2.06,2.85,4.09s-1.25,2.81-3,2.88C62.47,93.26,60,93.19,57.48,93.19Zm191.64,0c-2.59,0-5.19.09-7.79,0-1.66-.08-2.84-.87-2.75-2.83s.25-3.91,2.64-4Q249,86,256.8,86.24c2.39.07,2.17,2.2,2.27,3.87s-.47,3-2.45,3C254.12,93.16,251.62,93.13,249.12,93.14ZM122.9,218.7H123c0,2.29.07,4.58,0,6.87-.08,2.12-1,3.71-3.37,3.75a3.4,3.4,0,0,1-3.78-3.68c-.07-4.58,0-9.16,0-13.74,0-2.25,1.44-2.86,3.34-2.9s3.65.39,3.7,2.84C122.93,214.12,122.9,216.41,122.9,218.7Zm0-190.53c0,2.29,0,4.59,0,6.88-.06,2.12-1.38,3-3.34,3s-3.7-.61-3.75-2.94c-.09-4.58,0-9.17,0-13.75,0-2.63,1.88-3,3.89-3.06s3.23.88,3.24,3S122.93,25.88,122.93,28.17Z" transform="translate(-0.62)"/><path class="cls-1" d="M99.08,100.07c6.3,0,12.6,0,18.89,0,7.15,0,11.34-3.81,11.43-10.85.17-13.59.07-27.18,0-40.77,0-2.21-.21-4.29-3.33-4.16s-4,1-4,4.33c0,11.69,0,23.38,0,35.08V87c0,5.48-.38,5.84-5.74,5.85-12.79,0-25.58,0-38.37,0-3.6,0-4.44,1-4.2,4.2.19,2.6,1.91,3,4,3C84.89,100.08,92,100.07,99.08,100.07Z" transform="translate(-0.62)"/><path class="cls-1" d="M122.15,183.61c0,5.09.1,10.19,0,15.27-.07,3,1.61,3.76,4.12,3.84,2.78.1,3.28-1.61,3.27-3.89,0-10.18-.05-20.36,0-30.54,0-2.53-.93-3.7-3.52-3.61-2.44.09-4,.78-3.89,3.66C122.24,173.43,122.14,178.52,122.15,183.61Z" transform="translate(-0.62)"/><path class="cls-1" d="M213.17,100.05c5.2,0,10.39,0,15.59,0,2.7,0,4.05-1.13,4-4s-1.82-3.27-4-3.27c-10.29,0-20.59,0-30.88,0-2.45,0-3.86.68-3.9,3.59s1.4,3.62,3.84,3.61c5.1,0,10.19,0,15.29,0Z" transform="translate(-0.62)"/><path class="cls-1" d="M57.48,93.19c2.5,0,5,.07,7.48,0,1.76-.07,3.08-.73,3-2.88s-.3-4-2.85-4.09q-7.62-.18-15.24,0c-2.65.07-2.27,2.29-2.41,4s.67,2.89,2.54,2.92c2.49,0,5,0,7.47,0Z" transform="translate(-0.62)"/><path class="cls-1" d="M249.12,93.14c2.5,0,5,0,7.5,0,2,0,2.55-1.29,2.45-3s.12-3.8-2.27-3.87q-7.78-.22-15.58.05c-2.39.08-2.55,2.11-2.64,4s1.09,2.75,2.75,2.83C243.93,93.23,246.53,93.14,249.12,93.14Z" transform="translate(-0.62)"/><path class="cls-1" d="M122.9,218.7c0-2.29,0-4.58,0-6.86,0-2.45-1.73-2.87-3.7-2.84s-3.33.65-3.34,2.9c0,4.58-.11,9.16,0,13.74a3.4,3.4,0,0,0,3.78,3.68c2.37,0,3.29-1.63,3.37-3.75.09-2.29,0-4.58,0-6.87Z" transform="translate(-0.62)"/><path class="cls-1" d="M122.93,28.17c0-2.29,0-4.59,0-6.88s-1.22-3.07-3.24-3-3.88.43-3.89,3.06c0,4.58-.06,9.17,0,13.75,0,2.33,1.79,2.92,3.75,2.94s3.28-.85,3.34-3C123,32.76,122.93,30.46,122.93,28.17Z" transform="translate(-0.62)"/></g></g></svg>