<svg xmlns="http://www.w3.org/2000/svg" xmlns:xlink="http://www.w3.org/1999/xlink" style="margin: auto; background: rgb(241, 242, 243); display: block; shape-rendering: auto;" width="64px" height="64px" viewBox="0 0 100 100" preserveAspectRatio="xMidYMid">
<g transform="translate(50 50)">
<g transform="rotate(21.3793)">
<animateTransform attributeName="transform" type="rotate" values="0;45" keyTimes="0;1" dur="0.2s" repeatCount="indefinite"></animateTransform><path d="M29.287369291214944 -6.5 L43.287369291214944 -6.5 L43.287369291214944 6.5 L29.287369291214944 6.5 A30 30 0 0 1 25.305491506645296 16.113103351220175 L25.305491506645296 16.113103351220175 L35.20498644325696 26.012598287831842 L26.012598287831842 35.20498644325696 L16.113103351220175 25.305491506645296 A30 30 0 0 1 6.500000000000003 29.28736929121494 L6.500000000000003 29.28736929121494 L6.5000000000000036 43.287369291214944 L-6.499999999999997 43.287369291214944 L-6.499999999999998 29.287369291214944 A30 30 0 0 1 -16.11310335122018 25.305491506645293 L-16.11310335122018 25.305491506645293 L-26.012598287831842 35.204986443256956 L-35.204986443256956 26.01259828783185 L-25.305491506645293 16.113103351220182 A30 30 0 0 1 -29.287369291214944 6.499999999999997 L-29.287369291214944 6.499999999999997 L-43.287369291214944 6.499999999999999 L-43.287369291214944 -6.4999999999999885 L-29.287369291214944 -6.49999999999999 A30 30 0 0 1 -25.305491506645296 -16.113103351220175 L-25.305491506645296 -16.113103351220175 L-35.20498644325696 -26.012598287831835 L-26.012598287831853 -35.20498644325695 L-16.113103351220186 -25.30549150664529 A30 30 0 0 1 -6.499999999999999 -29.287369291214944 L-6.499999999999999 -29.287369291214944 L-6.500000000000002 -43.287369291214944 L6.499999999999986 -43.287369291214944 L6.4999999999999885 -29.287369291214944 A30 30 0 0 1 16.113103351220175 -25.305491506645296 L16.113103351220175 -25.305491506645296 L26.012598287831835 -35.20498644325696 L35.20498644325695 -26.012598287831853 L25.30549150664529 -16.113103351220186 A30 30 0 0 1 29.287369291214944 -6.500000000000001 M0 -19A19 19 0 1 0 0 19 A19 19 0 1 0 0 -19" fill="#0f8a6d"></path></g></g>
</svg>