<?xml version="1.0" encoding="utf-8"?>
<!-- Generator: Adobe Illustrator 22.1.0, SVG Export Plug-In . SVG Version: 6.00 Build 0)  -->
<svg version="1.1" xmlns="http://www.w3.org/2000/svg" xmlns:xlink="http://www.w3.org/1999/xlink" x="0px" y="0px"
	 viewBox="0 0 970 174.9" style="enable-background:new 0 0 970 174.9;" xml:space="preserve">
<style type="text/css">
	.st0{display:none;}
	.st1{display:inline;stroke:#FFFFFF;stroke-width:9;stroke-miterlimit:10;}
	.st2{display:inline;}
	.st3{display:inline;fill:none;stroke:#FFFFFF;stroke-width:3.6;stroke-miterlimit:10;}
	.st4{fill:none;stroke:#FFFFFF;stroke-width:7.2;stroke-miterlimit:10;}
	.st5{fill:#FEFEFE;}
	.st6{fill:none;stroke:#3F3F3F;stroke-width:7.2;stroke-miterlimit:10;}
</style>
<g id="Layer_2" class="st0">
	<path class="st1" d="M0,144"/>
	<g id="Layer_4" class="st2">
	</g>
</g>
<g id="l-pipe" class="st0">
	<g id="left-pipe">
		<path class="st3" d="M0,173h94.4C269.2,178,167,52.5,247.6,45L970,39l0,0"/>
	</g>
	<g id="pipe" class="st2">
		<path class="st4" d="M0,170.9h109c22.4,0,44-6.8,59.8-18.9l101.9-77.7c15.9-12.1,37.4-18.9,59.9-18.9L970,56"/>
	</g>
	<g id="instrument" class="st2">
		<path class="st5" d="M733.9,44.2h51.2l2.6,3v14.6l-2.6,3h-51.2l-2.6-3V47.2L733.9,44.2z M761.6,9v6.8h5l1.3,1.4v3.5l-1.3,1.4
			h-14.2l-1.3-1.4v-3.5l1.3-1.4h5V9.1h-18.1l-1.3-1.5V4.3l1.3-1.5h18.4c0.3,0.9,1,1.5,1.9,1.5l0,0c0.9,0,1.6-0.6,1.9-1.5h17.8
			l1.3,1.5v3.4l-1.3,1.5L761.6,9z M753.7,23.7h11.5V36h1.3l1.3,1.4v5h-16.6v-5l1.3-1.4h1.3V23.7z"/>
	</g>
</g>
<g id="Layer_5">
	<path class="st6" d="M0.3,171.9h14.6h79.2c25.9,0,50.7-10.3,68.9-28.6l38.7-38.7c18.2-18.2,42.9-28.4,68.6-28.4H970"/>
</g>
<g id="Layer_6">
</g>
</svg>
