<?xml version="1.0" encoding="UTF-8"?>
<!DOCTYPE svg PUBLIC "-//W3C//DTD SVG 1.1//EN" "http://www.w3.org/Graphics/SVG/1.1/DTD/svg11.dtd">
<!-- Creator: CorelDRAW X7 -->
<svg xmlns="http://www.w3.org/2000/svg" xml:space="preserve" width="1920px" height="200px" version="1.1" style="shape-rendering:geometricPrecision; text-rendering:geometricPrecision; image-rendering:optimizeQuality; fill-rule:evenodd; clip-rule:evenodd"
viewBox="0 0 1920 200"
 xmlns:xlink="http://www.w3.org/1999/xlink">
 <defs>
  <style type="text/css">
   <![CDATA[
    .str1 {stroke:#FEFEFE;stroke-width:16.6666}
    .str0 {stroke:#898989;stroke-width:8.33387}
    .fil0 {fill:none}
    .fil1 {fill:#727271}
    .fil2 {fill:#FEFEFE}
   ]]>
  </style>
 </defs>
 <g id="Layer_x0020_1">
  <metadata id="CorelCorpID_0Corel-Layer"/>
  <path class="fil0 str0" d="M-5 130l1424 0c12,0 19,-3 26,-14l24 -41c8,-12 14,-16 27,-16l431 0"/>
  <path class="fil0 str1" d="M961 183l133 0c11,0 17,-3 23,-14l23 -42c6,-12 12,-15 24,-15l763 -2"/>
  <polygon class="fil1" points="1683,45 1740,45 1743,48 1743,69 1740,72 1683,72 1681,69 1681,48 "/>
  <path class="fil1" d="M1669 47l7 0 0 5 2 0 0 13 -2 0 0 5 -7 0 -3 -2 0 -19 3 -2zm76 5l3 0 0 -5 6 0 3 2 0 19 -3 2 -6 0 0 -5 -3 0 0 -13z"/>
  <path class="fil2" d="M1345 99l63 0 3 3 0 18 -3 3 -63 0 -4 -3 0 -18 4 -3zm34 -42l0 8 6 0 2 2c0,3 0,1 0,4l-2 2 -17 0 -2 -2c0,-3 0,-1 0,-4l2 -2 6 0 0 -8 -22 0 -2 -2c0,-3 0,0 0,-4l2 -1 22 0c1,1 2,1 3,1l0 0c1,0 2,0 2,-1l22 0 2 1c0,4 0,1 0,4l-2 2 -22 0zm-10 18l15 0 0 14 1 0 2 2 0 6 -21 0 0 -6 2 -2 1 0 0 -14z"/>
 </g>
</svg>
