<svg id="Layer_1" data-name="Layer 1" xmlns="http://www.w3.org/2000/svg" viewBox="0 0 996 198">
  <title>lpipe</title>
  <g>
    <path d="M31,106.7H489.1c12.3,0,19.3-3.3,25.8-14.3L539.6,51c7.2-12,13.3-15.6,26.5-15.6l430.4-.1" style="fill: none;stroke: #898989;stroke-miterlimit: 10;stroke-width: 2.973599910736084px"/>
    <path d="M-1.1,159H136.2c11.6,0,18.2-3.3,24.4-14.3l23.2-41.4c6.8-12,12.6-15.6,25-15.6L996.5,86" style="fill: none;stroke: #fefefe;stroke-miterlimit: 10;stroke-width: 3.9969000816345215px"/>
    <polygon points="626 21.6 682.5 21.6 685.4 24.4 685.4 46.1 682.5 49 626 49 623.1 46.1 623.1 24.4 626 21.6" style="fill: #727271"/>
    <path d="M611.6,23.4h6.7v5.5H621V41.6h-2.7v5.5h-6.7L609,44.6V25.9Zm75.9,5.5h2.6V23.4h6.7l2.6,2.5V44.8l-2.6,2.5h-6.7V41.8h-2.6Z" style="fill: #727271"/>
    <path d="M294.3,73.6h63.1l3.3,3.5V94.3l-3.3,3.5H294.3L291,94.3V77.2ZM328.4,32v8.1h6.1l1.5,1.7v4.1l-1.5,1.7H317.2l-1.7-1.7V41.8l1.7-1.7h6.1V32H301.1l-1.5-1.6V26.3l1.5-1.6h22.7a3,3,0,0,0,2.5,1.8h0a2.85,2.85,0,0,0,2.4-1.8h21.9l1.5,1.6v4.1L350.6,32Zm-9.7,17.5H333V64h1.5l1.5,1.8v5.9H315.5V65.8l1.7-1.8h1.5Z" style="fill: #fefefe"/>
  </g>
</svg>
