<?xml version="1.0" encoding="utf-8"?>
<!-- Generator: Adobe Illustrator 22.1.0, SVG Export Plug-In . SVG Version: 6.00 Build 0)  -->
<svg version="1.1" id="Layer_1" xmlns="http://www.w3.org/2000/svg" xmlns:xlink="http://www.w3.org/1999/xlink" x="0px" y="0px"
	 viewBox="0 0 996 198" style="enable-background:new 0 0 996 198;" xml:space="preserve">
<style type="text/css">
	.st0{display:none;fill:none;}
	.st1{fill:none;stroke:#898989;stroke-width:2.9736;stroke-miterlimit:10;}
	.st2{fill:none;stroke:#FEFEFE;stroke-width:3.9969;stroke-miterlimit:10;}
	.st3{fill:#727271;}
	.st4{fill:#FEFEFE;}
</style>
<g>
	<rect x="-24" y="13" class="st0" width="1012.5" height="188.9"/>
	<path class="st1" d="M31,106.7h458.1c12.3,0,19.3-3.3,25.8-14.3L539.6,51c7.2-12,13.3-15.6,26.5-15.6l430.4-0.1"/>
	<path class="st2" d="M-1.1,159h137.3c11.6,0,18.2-3.3,24.4-14.3l23.2-41.4c6.8-12,12.6-15.6,25-15.6l787.7-1.7"/>
	<polygon class="st3" points="626,21.6 682.5,21.6 685.4,24.4 685.4,46.1 682.5,49 626,49 623.1,46.1 623.1,24.4 	"/>
	<path class="st3" d="M611.6,23.4h6.7v5.5h2.7v12.7h-2.7v5.5h-6.7l-2.6-2.5V25.9L611.6,23.4z M687.5,28.9h2.6v-5.5h6.7l2.6,2.5v18.9
		l-2.6,2.5h-6.7v-5.5h-2.6V28.9z"/>
	<path class="st4" d="M294.3,73.6h63.1l3.3,3.5v17.2l-3.3,3.5h-63.1l-3.3-3.5V77.2L294.3,73.6z M328.4,32v8.1h6.1l1.5,1.7v4.1
		l-1.5,1.7h-17.3l-1.7-1.7v-4.1l1.7-1.7h6.1V32h-22.2l-1.5-1.6v-4.1l1.5-1.6h22.7c0.4,1,1.4,1.7,2.5,1.8l0,0c1.1-0.1,2-0.8,2.4-1.8
		h21.9l1.5,1.6v4.1l-1.5,1.6H328.4z M318.7,49.5H333V64h1.5l1.5,1.8v5.9h-20.5v-5.9l1.7-1.8h1.5L318.7,49.5z"/>
</g>
</svg>
