<?xml version="1.0" encoding="utf-8"?>
<!-- Generator: Adobe Illustrator 22.1.0, SVG Export Plug-In . SVG Version: 6.00 Build 0)  -->
<svg version="1.1" xmlns="http://www.w3.org/2000/svg" xmlns:xlink="http://www.w3.org/1999/xlink" x="0px" y="0px"
	 viewBox="0 0 970 174.9" style="enable-background:new 0 0 970 174.9;" xml:space="preserve">
<style type="text/css">
	.st0{display:none;}
	.st1{display:inline;fill:#134500;stroke:#FFFFFF;stroke-miterlimit:10;}
	.st2{display:inline;stroke:#FFFFFF;stroke-width:9;stroke-miterlimit:10;}
	.st3{display:inline;fill:none;stroke:#FFFFFF;stroke-width:7.2;stroke-miterlimit:10;}
	.st4{display:inline;}
	.st5{fill:#FEFEFE;}
	.st6{display:none;fill:#919191;fill-opacity:0;}
	.st7{fill:#919191;fill-opacity:0;}
	.st8{fill:none;stroke:#000000;stroke-width:7.2;stroke-miterlimit:10;}
</style>
<g id="Layer_2" class="st0">
	<rect class="st1" width="970" height="174.9"/>
	<path class="st2" d="M-1,143"/>
	<path class="st3" d="M-1,169.9h109c22.4,0,44-6.8,59.8-18.9l101.9-77.7c15.9-12.1,37.4-18.9,59.9-18.9L969,55"/>
	<g id="instrument" class="st4">
		<path class="st5" d="M732.9,43.2h51.2l2.6,3v14.6l-2.6,3h-51.2l-2.6-3V46.2L732.9,43.2z M760.6,8v6.8h5l1.3,1.4v3.5l-1.3,1.4
			h-14.2l-1.3-1.4v-3.5l1.3-1.4h5V8.1h-18.1l-1.3-1.5V3.3l1.3-1.5h18.4c0.3,0.9,1,1.5,1.9,1.5l0,0c0.9,0,1.6-0.6,1.9-1.5h17.8
			l1.3,1.5v3.4l-1.3,1.5L760.6,8z M752.7,22.7h11.5V35h1.3l1.3,1.4v5h-16.6v-5l1.3-1.4h1.3V22.7z"/>
	</g>
</g>
<g id="right-pipe">
	<g id="Layer_4" class="st0">
	</g>
	<g id="Layer_3">
		<rect class="st6" width="970" height="174.9"/>
		<rect class="st7" width="970" height="174.9"/>
	</g>
	<g id="Layer_2_1_">
		<line class="st8" x1="-1" y1="54.2" x2="969" y2="54.2"/>
	</g>
</g>
<g id="Layer_3_1_" class="st0">
</g>
</svg>
