<svg id="Layer_2" data-name="Layer 2" xmlns="http://www.w3.org/2000/svg" viewBox="0 0 1081.7 355.79"><title>spectate2</title><path d="M627.38,273.19a159.45,159.45,0,0,0-26.92,2.36,197.77,197.77,0,0,0-34.66,9.21,203.23,203.23,0,0,0-32.37,15.12,151.73,151.73,0,0,0-27.32,20,108.07,108.07,0,0,0-19.57,23.9,64.64,64.64,0,0,0-9.06,26.35,40.13,40.13,0,0,0,1.72,16.56,65.53,65.53,0,0,0,7.48,15.41,107.07,107.07,0,0,0,11.65,14.69q6.76,7.2,13.67,14.4,6,6.33,12.08,12.82a111.11,111.11,0,0,1,10.65,13.24,77.28,77.28,0,0,1,7.62,14.12,40.87,40.87,0,0,1,3,15.69,66.23,66.23,0,0,1-5.61,27.65,59.05,59.05,0,0,1-15.82,21,73.6,73.6,0,0,1-24.31,13.4,97,97,0,0,1-31.07,4.75,137,137,0,0,1-19.7-1.44,54.44,54.44,0,0,1-18-5.76,36.74,36.74,0,0,1-13.23-12q-5.17-7.63-5.17-20a32.24,32.24,0,0,1,3.16-14.83,43.7,43.7,0,0,1,8.07-11.09,52.57,52.57,0,0,1,11.23-8.5l12.38-7.05,6.63-3.75c.38-1.15-1.15-2.78-4.61-4.89a71.47,71.47,0,0,0-12.1-5.76,88.9,88.9,0,0,0-13.1-3.89,24.58,24.58,0,0,0-4.86-.61,4.85,4.85,0,0,0-3.06.75h.29q-20.89,14.42-28.88,28.52a53.92,53.92,0,0,0-7.41,29.08,42,42,0,0,0,9.22,25.2,76.11,76.11,0,0,0,21.16,18.15,113.35,113.35,0,0,0,27.08,11.37,137.31,137.31,0,0,0,27.21,4.9q2.34.09,4.65.09a115.92,115.92,0,0,0,40-7,149.4,149.4,0,0,0,38.16-20.31A121.42,121.42,0,0,0,575.33,517q10.8-15.54,12.53-30.52a44.57,44.57,0,0,0-2.16-18.44,87.19,87.19,0,0,0-8.21-17.42,128.37,128.37,0,0,0-12.1-16.56q-6.9-8.05-14.11-15.84-5.76-6-11.52-12.82a143.54,143.54,0,0,1-10.51-14,96.12,96.12,0,0,1-8.06-14.84A53.5,53.5,0,0,1,517,360.94a39.32,39.32,0,0,1,3.17-21.75,59,59,0,0,1,13.1-18,88.88,88.88,0,0,1,20-14.11,163.31,163.31,0,0,1,23.9-10.22A167.78,167.78,0,0,1,602,290.52a133.13,133.13,0,0,1,22.75-2.16h5.19a19.86,19.86,0,0,1,4.89.58q7.49,1.15,10.51,4.89a14.19,14.19,0,0,1,3,9.22q0,6.63-4.47,14.26a91.75,91.75,0,0,1-11.08,15,117.65,117.65,0,0,1-14.26,13.39,69.29,69.29,0,0,1-14,8.93c-.39.77.1,1.92,1.44,3.46a28.91,28.91,0,0,0,5.62,4.75,36.57,36.57,0,0,0,8.64,4.18,32.17,32.17,0,0,0,10.51,1.72,24.94,24.94,0,0,0,13.54-3.45h.86a80.07,80.07,0,0,0,9.07-11.95,125.12,125.12,0,0,0,8.07-15,100.25,100.25,0,0,0,5.76-16.27,63.81,63.81,0,0,0,2.16-15.84,38.88,38.88,0,0,0-1.88-12.1,27,27,0,0,0-6-10.22,30,30,0,0,0-10.93-7.2,52.55,52.55,0,0,0-16.54-3.31q-3.71-.19-7.46-.2Z" transform="translate(-380.17 -273.19)"/><path d="M648.68,395.66a9,9,0,0,0-4.38,1A163.51,163.51,0,0,1,638,417.53q-4,10.8-8.64,22.32-2.6,6.91-6.05,16t-5.76,15.7q-4,10.37-9.22,21.31t-10.08,21.6q-5.75,12.39-11.52,25.2t-10.51,25.63a248.78,248.78,0,0,0-7.92,25.35,123,123,0,0,0-3.74,24q.29,3.17,4.61,6.33a49.15,49.15,0,0,0,9.21,5.33,30.6,30.6,0,0,0,9.07,2.59c.4,0,.77.06,1.12.06,2.07,0,3.19-.74,3.35-2.22a146,146,0,0,1,4.61-25.34,263.65,263.65,0,0,1,8.2-25.06q4.75-12.39,10.37-24.05t11.09-22.6l4.9-9.51q3.16,7.5,11.66,13.39,8.1,5.64,22.35,5.63h1.41A69.11,69.11,0,0,0,697,531.43a105.48,105.48,0,0,0,26.78-19.58A136.69,136.69,0,0,0,745,484.35a145.44,145.44,0,0,0,14-31.54,87.17,87.17,0,0,0,2.73-11.23,62.32,62.32,0,0,0,1-10.66,48.59,48.59,0,0,0-1.44-11.81,27.42,27.42,0,0,0-5-10.36,31.21,31.21,0,0,0-9.5-7.92,40.6,40.6,0,0,0-14.55-4.47,47.17,47.17,0,0,0-5.95-.37,55.81,55.81,0,0,0-22.41,5,127.69,127.69,0,0,0-27.51,16.42q.29-4.61-3.45-9.08a35.59,35.59,0,0,0-9.08-7.63,38.33,38.33,0,0,0-10.8-4.46,18.63,18.63,0,0,0-4.26-.56Zm-1.5,88.83q3.75-10.08,8.5-20.59t9.07-19.73a120.32,120.32,0,0,1,13.25-13A93.78,93.78,0,0,1,692.69,421a78.21,78.21,0,0,1,14.83-6.48,40.39,40.39,0,0,1,12.05-2.05c.45,0,.9,0,1.34,0a8.59,8.59,0,0,1,7.2,3.89q2.31,3.6,2.31,10.22,0,7.2-3.46,17a126.47,126.47,0,0,1-9.22,20,206,206,0,0,1-13.1,20.3,134.34,134.34,0,0,1-15.26,17.72,84.75,84.75,0,0,1-15.84,12.24q-7,4.1-13,4.09-.76,0-1.5-.06c-5.18-.39-8.74-2.69-10.65-6.91a34.32,34.32,0,0,1-2.88-14.4,52.84,52.84,0,0,1,.86-9.22,5.24,5.24,0,0,0,.43-1.44,2.57,2.57,0,0,1,.72-1.44Z" transform="translate(-380.17 -273.19)"/><path d="M855.26,394.9a65.69,65.69,0,0,0-20.88,3.48A108,108,0,0,0,813.21,408a109.6,109.6,0,0,0-17.85,13.1,102.41,102.41,0,0,0-12.53,13.25Q768.15,454,761.52,470a76.74,76.74,0,0,0-6,32.4q.87,17.85,12.67,28.22t33.12,10.37c2.31,0,5.47-.1,9.51-.29a67.49,67.49,0,0,0,13.39-2.16,89.15,89.15,0,0,0,15.41-5.62,70.53,70.53,0,0,0,16.12-10.65,193,193,0,0,0,24.48-27.51q10.08-14,17-25.2l5.47-8.92c1.15-1.92,1.39-3.56.72-4.9A5.37,5.37,0,0,0,899.9,453a10.35,10.35,0,0,0-2.86-.4,12.65,12.65,0,0,0-2.47.26,7.36,7.36,0,0,0-4.6,2.88q-3.18,5.76-6.92,12.1t-8.35,13a145.26,145.26,0,0,1-17.85,21.74A116.52,116.52,0,0,1,839,517.18,60.05,60.05,0,0,1,822.57,525a34.51,34.51,0,0,1-9.16,1.41,19.54,19.54,0,0,1-4.08-.4q-7.79-2.6-11.38-11.38a47,47,0,0,1-3.6-18v-2.3A148.38,148.38,0,0,0,841,471.67a114.25,114.25,0,0,0,33.12-37.58q6.9-10.65,6.91-19a17.76,17.76,0,0,0-6.63-14.4q-6.61-5.46-17.56-5.76l-1.59,0Zm-59.47,89.88a122.73,122.73,0,0,1,7.92-21.31,148.48,148.48,0,0,1,13.54-23.33,101.37,101.37,0,0,1,18.14-19.73,48.94,48.94,0,0,1,21.46-10.8,7.57,7.57,0,0,1,1.3-.12,4.25,4.25,0,0,1,3.74,1.85,11.69,11.69,0,0,1,1.58,6.62,25.44,25.44,0,0,1-2.3,10.37,116.28,116.28,0,0,1-65.38,56.45Z" transform="translate(-380.17 -273.19)"/><path d="M976.08,466.69h0m-1.87-71.79a65.64,65.64,0,0,0-20.88,3.48A107.69,107.69,0,0,0,932.16,408a109.26,109.26,0,0,0-17.86,13.1,102.41,102.41,0,0,0-12.53,13.25Q887.09,454,880.46,470a76.9,76.9,0,0,0-6.05,32.4q.87,17.85,12.67,28.22t33.13,10.37q3.45,0,9.5-.29a67.38,67.38,0,0,0,13.39-2.16,88.85,88.85,0,0,0,15.41-5.62,70.8,70.8,0,0,0,16.13-10.65,193.65,193.65,0,0,0,24.48-27.51q10.07-14,17-25.2l5.47-8.92c1.15-1.92,1.39-3.56.72-4.9a5.34,5.34,0,0,0-3.46-2.74,10.27,10.27,0,0,0-2.85-.4,12.58,12.58,0,0,0-2.47.26,7.38,7.38,0,0,0-4.61,2.88q-3.18,5.76-6.91,12.1t-8.36,13a145.26,145.26,0,0,1-17.85,21.74,116.52,116.52,0,0,1-17.86,14.69A60.14,60.14,0,0,1,941.52,525a34.57,34.57,0,0,1-9.17,1.41,19.61,19.61,0,0,1-4.08-.4q-7.78-2.6-11.38-11.38a47,47,0,0,1-3.6-18,48.45,48.45,0,0,1,1.44-11.8,122.73,122.73,0,0,1,7.92-21.31,150.06,150.06,0,0,1,13.54-23.33,101.69,101.69,0,0,1,18.14-19.73q10.23-8.49,21.46-10.8a7.57,7.57,0,0,1,1.3-.12,4.25,4.25,0,0,1,3.74,1.85,11.1,11.1,0,0,1,1.58,6.33,26.17,26.17,0,0,1-.72,5.76,24.56,24.56,0,0,1-2.44,6.34,5.16,5.16,0,0,0,.71,4.46,5,5,0,0,0,3.75,1.73l.56,0a11.79,11.79,0,0,0,4.62-1,14,14,0,0,0,5-3.74q5.48-8.93,5.48-16.42a17.8,17.8,0,0,0-6.34-14.11q-6.35-5.46-17.28-5.76l-1.58,0Z" transform="translate(-380.17 -273.19)"/><path d="M1078.25,307.58a10,10,0,0,0-4.54.94Q1067.08,333,1051.24,367a243.37,243.37,0,0,0-41.61,21.88,5.06,5.06,0,0,0-2.29,3,3.31,3.31,0,0,0,.86,2.88,6.39,6.39,0,0,0,3.14,1.87,6.16,6.16,0,0,0,1.69.23,8.87,8.87,0,0,0,2.87-.52h.58q6.56-3.74,13.17-6.77t13.24-5.9l-8.35,16.7q-6.63,12.67-12.92,25.35t-11.57,25.49q-5.28,12.81-9.42,25.77a170.17,170.17,0,0,0-6.13,25.92,46.28,46.28,0,0,0-.86,5.76c-.19,2.12-.28,3.94-.28,5.47q0,11,5.27,18.43t17,8.07a44.22,44.22,0,0,0,10.87-1.3,55.93,55.93,0,0,0,9.35-3.16,41.15,41.15,0,0,0,7.34-4.18q3.16-2.31,5.18-4A117.44,117.44,0,0,0,1061,515.74q6-6.76,11.52-14.11t10.22-14.84q4.76-7.49,9.07-14.4l7.2-11.8a2.9,2.9,0,0,0-.57-3.46,10.33,10.33,0,0,0-3.75-2.3,11.35,11.35,0,0,0-4.06-.74c-.23,0-.46,0-.69,0a3.8,3.8,0,0,0-3.31,1.58c-1,1.54-1.92,3-2.88,4.46s-1.92,2.93-2.88,4.47h.29q-4.9,8.36-10.8,17.28A207.5,207.5,0,0,1,1058,498.75a112.6,112.6,0,0,1-13.68,14.11,49.26,49.26,0,0,1-15,9.07h-2.31q-1.44-1.44-1.44-7.78,0-6,2.74-15.55T1035.4,478q4.32-11.08,9.65-22.9t10.51-22.6q5.19-10.8,9.65-19.59t7.06-13.68l1.73-3.45,13.53-26.5a185.2,185.2,0,0,1,20-3.46,175.3,175.3,0,0,1,20-1.15q3.17,0,6.34.15c2.11.09,4.32.24,6.62.43a6.64,6.64,0,0,0,1.39.15,7.3,7.3,0,0,0,3.8-1.16,16.15,16.15,0,0,0,4.46-4,16.57,16.57,0,0,0,2.74-5.33,8,8,0,0,0,0-5.18c-1.92-.19-4.28-.34-7.06-.44s-5.14-.14-7.06-.14a221.15,221.15,0,0,0-43.48,4.32q3.74-7.49,6.33-13.39t3.75-8.79q1.72-4.89-1.73-9.79a31,31,0,0,0-8.93-8.35,38.31,38.31,0,0,0-11.52-4.9,22,22,0,0,0-5-.65Z" transform="translate(-380.17 -273.19)"/><path d="M1169.32,394.06a63.14,63.14,0,0,0-24,4.75A101.77,101.77,0,0,0,1123,411.48a130.14,130.14,0,0,0-19.72,18.14,153.29,153.29,0,0,0-15.84,21.17,148,148,0,0,0-11.24,21.89,80.75,80.75,0,0,0-5.61,20.16c-.19,1.15-.33,2.5-.43,4s-.15,3.08-.15,4.61a44.43,44.43,0,0,0,1.73,11.95,34.09,34.09,0,0,0,5.76,11.52,35.82,35.82,0,0,0,11.09,9.36q7.05,4,17.42,4.9a35,35,0,0,0,12.67-2.45,67.64,67.64,0,0,0,12.53-6.48,107.19,107.19,0,0,0,12.1-9.21q5.9-5.19,11.37-11v4A26.71,26.71,0,0,0,1161,532q6.33,7.49,20.45,8.64c.73,0,1.44.05,2.15.05a35.81,35.81,0,0,0,8.94-1.06,46,46,0,0,0,9.07-3.31,51.16,51.16,0,0,0,7.2-4.32q3.17-2.31,5.18-4a153.12,153.12,0,0,0,24.77-26.93q10.65-14.83,19.58-29.52c1.16-1.92,2.26-3.79,3.32-5.62s2.16-3.6,3.31-5.32a2.62,2.62,0,0,0-.29-3.46,10.15,10.15,0,0,0-3.89-2.3,12.67,12.67,0,0,0-4.3-.74c-.25,0-.49,0-.74,0-1.73.09-2.88.62-3.45,1.58q-1.15,2-2.16,3.89a38.34,38.34,0,0,1-2.45,3.89q-5.19,8.36-11.09,17.56A195.39,195.39,0,0,1,1224,498.46,118.91,118.91,0,0,1,1210.22,513a43.56,43.56,0,0,1-15,8.93h-2.59c-.58-.58-.86-2.88-.86-6.91a40.41,40.41,0,0,1,1.29-9.36q1.31-5.32,3.17-11.09t4.18-11.52q2.29-5.76,4.6-10.94c.58-1.54,1.2-3,1.88-4.47a38,38,0,0,0,1.58-3.89q1.44-4.89-1.73-9.93a32.41,32.41,0,0,0-8.21-8.79,38.14,38.14,0,0,0-10.65-5.61,16.84,16.84,0,0,0-5.26-1,8.41,8.41,0,0,0-3.81.83h-2a79.72,79.72,0,0,1-2.88,14.69q-2.31,8.07-5.47,16.42-3.75,6-9.65,13.82t-12.24,15a141.69,141.69,0,0,1-12.38,12.53q-6.06,5.32-10.08,6.19a23.14,23.14,0,0,1-5,.61,11,11,0,0,1-3.4-.47,10.37,10.37,0,0,1-5.18-3.6,14.51,14.51,0,0,1-2.74-6.19,38.83,38.83,0,0,1-.72-7.63,49.62,49.62,0,0,1,.87-9.22q.86-4.61,1.73-8.06a146,146,0,0,1,5.47-15.7,151.63,151.63,0,0,1,8.21-17,149,149,0,0,1,10.51-16.27,96,96,0,0,1,12.38-13.83,62.48,62.48,0,0,1,13.68-9.64,29.19,29.19,0,0,1,13.45-3.34l1.1,0a11.86,11.86,0,0,1,7,2.6,15.17,15.17,0,0,1,4.18,5.61,28.3,28.3,0,0,1,2,7.2c.39,2.59.67,4.95.87,7.06a7.52,7.52,0,0,0,.29,2.16,8.29,8.29,0,0,1,.28,2.16,3.67,3.67,0,0,0,2.31,3.45,9.86,9.86,0,0,0,4.53,1l.65,0a14.06,14.06,0,0,0,5.33-1.29c1.63-.77,2.45-1.83,2.45-3.17a74.21,74.21,0,0,0-.43-12.1,40.76,40.76,0,0,0-3-11.37,28.8,28.8,0,0,0-6.48-9.36,23.8,23.8,0,0,0-10.51-5.76,60,60,0,0,0-14.69-1.73Z" transform="translate(-380.17 -273.19)"/><path d="M1321,307.58a10,10,0,0,0-4.54.94Q1309.86,333,1294,367a243.37,243.37,0,0,0-41.61,21.88,5.1,5.1,0,0,0-2.29,3,3.31,3.31,0,0,0,.86,2.88,6.44,6.44,0,0,0,3.14,1.87,6.16,6.16,0,0,0,1.69.23,8.87,8.87,0,0,0,2.87-.52h.58q6.56-3.74,13.17-6.77t13.24-5.9l-8.35,16.7q-6.63,12.67-12.92,25.35t-11.57,25.49q-5.28,12.81-9.42,25.77a170.17,170.17,0,0,0-6.13,25.92,46.28,46.28,0,0,0-.86,5.76c-.19,2.12-.28,3.94-.28,5.47q0,11,5.27,18.43t17,8.07a44.22,44.22,0,0,0,10.87-1.3,55.93,55.93,0,0,0,9.35-3.16A41.15,41.15,0,0,0,1286,532q3.16-2.31,5.18-4a117.44,117.44,0,0,0,12.68-12.24q6-6.76,11.52-14.11t10.22-14.84q4.76-7.49,9.07-14.4l7.2-11.8a2.9,2.9,0,0,0-.57-3.46,10.33,10.33,0,0,0-3.75-2.3,11.35,11.35,0,0,0-4.06-.74c-.23,0-.46,0-.69,0a3.8,3.8,0,0,0-3.31,1.58c-1,1.54-1.92,3-2.88,4.46s-1.92,2.93-2.88,4.47h.29q-4.9,8.36-10.8,17.28a207.5,207.5,0,0,1-12.39,16.85,112.6,112.6,0,0,1-13.68,14.11,49.26,49.26,0,0,1-15,9.07h-2.31q-1.44-1.44-1.44-7.78,0-6,2.74-15.55t7-20.59q4.32-11.08,9.65-22.9t10.51-22.6q5.19-10.8,9.65-19.59t7.06-13.68l1.73-3.45,13.53-26.5a185.2,185.2,0,0,1,20-3.46,175.3,175.3,0,0,1,20-1.15q3.17,0,6.34.15c2.11.09,4.32.24,6.62.43a6.64,6.64,0,0,0,1.39.15,7.3,7.3,0,0,0,3.8-1.16,16.15,16.15,0,0,0,4.46-4,16.57,16.57,0,0,0,2.74-5.33,8,8,0,0,0,0-5.18c-1.92-.19-4.28-.34-7.06-.44s-5.14-.14-7.05-.14a221.18,221.18,0,0,0-43.49,4.32q3.73-7.49,6.33-13.39t3.75-8.79q1.72-4.89-1.73-9.79a31,31,0,0,0-8.93-8.35,38.31,38.31,0,0,0-11.52-4.9,22,22,0,0,0-5-.65Z" transform="translate(-380.17 -273.19)"/><path d="M1413.4,394.9a65.69,65.69,0,0,0-20.88,3.48,108,108,0,0,0-21.17,9.65,109.17,109.17,0,0,0-17.85,13.1A101.73,101.73,0,0,0,1341,434.38Q1326.27,454,1319.66,470a76.59,76.59,0,0,0-6.05,32.4q.86,17.85,12.67,28.22t33.12,10.37q3.45,0,9.5-.29a67.26,67.26,0,0,0,13.39-2.16,88.56,88.56,0,0,0,15.41-5.62,70.58,70.58,0,0,0,16.13-10.65,193,193,0,0,0,24.48-27.51q10.08-14,17-25.2l5.48-8.92c1.15-1.92,1.39-3.56.72-4.9A5.37,5.37,0,0,0,1458,453a10.35,10.35,0,0,0-2.86-.4,12.58,12.58,0,0,0-2.47.26,7.38,7.38,0,0,0-4.61,2.88q-3.16,5.76-6.91,12.1t-8.35,13A144.68,144.68,0,0,1,1415,502.49a116,116,0,0,1-17.85,14.69,60.05,60.05,0,0,1-16.42,7.77,34.51,34.51,0,0,1-9.16,1.41,19.64,19.64,0,0,1-4.09-.4q-7.77-2.6-11.37-11.38a46.83,46.83,0,0,1-3.6-18v-2.3a148.23,148.23,0,0,0,46.65-22.61,114,114,0,0,0,33.12-37.58q6.91-10.65,6.91-19a17.76,17.76,0,0,0-6.62-14.4q-6.63-5.46-17.57-5.76l-1.58,0Zm-59.47,89.88a121.11,121.11,0,0,1,7.92-21.31,149.21,149.21,0,0,1,13.53-23.33,101.42,101.42,0,0,1,18.15-19.73,49,49,0,0,1,21.45-10.8,7.69,7.69,0,0,1,1.31-.12,4.23,4.23,0,0,1,3.73,1.85,11.6,11.6,0,0,1,1.59,6.62,25.3,25.3,0,0,1-2.31,10.37,116.22,116.22,0,0,1-65.37,56.45Z" transform="translate(-380.17 -273.19)"/></svg>