<svg xmlns="http://www.w3.org/2000/svg" viewBox="0 0 172.56 157.99"><defs><style>.cls-1{fill:#fff;}</style></defs><title>Asset 3</title><g id="Layer_2" data-name="Layer 2"><g id="Layer_1-2" data-name="Layer 1"><path class="cls-1" d="M173.18,0H.62V158H173.18ZM90.59,34.41c2.52,0,4.6.05,6.68,0,3.53-.09,7,.42,10.41-1.67,2.2-1.36,4.69-.17,6.34,1.89a5.73,5.73,0,0,1-.12,7.46,5.66,5.66,0,0,1-7.56,1.2c-1.6-1-3.4-2.22-4.72-.31-4.4,6.43-8.66,13-12.72,19.62-1.54,2.51-.35,4,2.65,4.07.9,0,1.8,0,2.7,0,4.21,0,4.65.13,4.27,4.37-.45,5,.88,8.34,5.5,11.21,6.56,4.08,13.16,7.65,20.87,8.42s6.39,1.15,6.52-5.78c0-.3,0-.6,0-.9,0-8.36,0-8.36,8.38-8.36,7.05,0,7.08,0,7.33,6.9,0,1.49.26,2.44,2.09,2.5,2.66.08,3.79,1.58,3.77,4.32q-.14,15.76,0,31.54c0,2.55-1,4.11-3.56,4.15-1.95,0-2.39.93-2.25,2.63.09,1.09,0,2.2,0,3.3,0,2.48-1.34,3.64-3.77,3.65-2.59,0-5.19,0-7.79,0-3-.06-4.06-1.11-4.13-4.23-.07-2.91-.13-5.82,0-8.71.11-2.17-.73-2.79-2.8-2.64-8.67.6-16.82,3-23.61,8.42-11.59,9.29-27,9.53-38.92.11-6.83-5.38-14.94-7.88-23.61-8.54-2.18-.17-3.08.52-3,2.83.16,3,.08,6,0,9,0,2.35-1.19,3.75-3.7,3.73H27.46c-2.49,0-3.63-1.31-3.63-3.74,0-1.1-.08-2.21,0-3.3.15-1.76-.42-2.54-2.32-2.53-2.41,0-3.58-1.45-3.58-3.87,0-10.72,0-21.43,0-32.15,0-2.31,1.17-3.49,3.28-4,.76-.17,1.54-.25,2.6-.41,0-1.79,0-3.48,0-5.16-.08-2.66,1.23-3.85,3.82-3.83,2.3,0,4.6,0,6.9,0,4.33,0,5,.66,5,5.06,0,3.35,0,6.71,0,10.49,3.18-.28,5.86-.35,8.49-.79,7.86-1.32,14.55-5.14,21-9.71,2.48-1.76,3.59-3.36,3.49-6.44-.24-7.31-.08-7.38,7.32-7.54,2,0,2.83-.8,2.45-2.66A9.59,9.59,0,0,0,81,60.79C77.61,55.48,74.14,50.23,70.71,45c-2.3-3.53-2.46-3.57-6.1-1.65C61.7,44.84,59.1,44.4,57.06,42a5.76,5.76,0,0,1-.1-7.43c1.9-2.38,4.61-2.9,7.54-1.46.87.43,1.75,1.18,2.65,1.21,4.28.12,8.56,0,13.25,0-1.51-3.5-1.26-6.42,1.67-8.58a5.33,5.33,0,0,1,6.45-.17C91.7,27.69,91.59,30.72,90.59,34.41Z" transform="translate(-0.62)"/><path d="M90.59,34.41c1-3.69,1.11-6.72-2.07-8.77a5.33,5.33,0,0,0-6.45.17c-2.93,2.16-3.18,5.08-1.67,8.58-4.69,0-9,.07-13.25,0-.9,0-1.78-.78-2.65-1.21-2.93-1.44-5.64-.92-7.54,1.46a5.76,5.76,0,0,0,.1,7.43c2,2.38,4.64,2.82,7.55,1.28,3.64-1.92,3.8-1.88,6.1,1.65,3.43,5.28,6.9,10.53,10.28,15.84a9.59,9.59,0,0,1,1.29,3.26c.38,1.86-.43,2.62-2.45,2.66-7.4.16-7.56.23-7.32,7.54.1,3.08-1,4.68-3.49,6.44-6.43,4.57-13.12,8.39-21,9.71-2.63.44-5.31.51-8.49.79,0-3.78,0-7.14,0-10.49,0-4.4-.69-5.06-5-5.06-2.3,0-4.6,0-6.9,0-2.59,0-3.9,1.17-3.82,3.83.05,1.68,0,3.37,0,5.16-1.06.16-1.84.24-2.6.41-2.11.47-3.28,1.65-3.28,4,0,10.72,0,21.43,0,32.15,0,2.42,1.17,3.87,3.58,3.87,1.9,0,2.47.77,2.32,2.53-.1,1.09,0,2.2,0,3.3,0,2.43,1.14,3.74,3.63,3.74h8.39c2.51,0,3.65-1.38,3.7-3.73.08-3,.16-6,0-9-.13-2.31.77-3,3-2.83,8.67.66,16.78,3.16,23.61,8.54C78,137,93.44,136.74,105,127.45c6.79-5.45,14.94-7.82,23.61-8.42,2.07-.15,2.91.47,2.8,2.64-.13,2.89-.07,5.8,0,8.71.07,3.12,1.1,4.17,4.13,4.23,2.6,0,5.2,0,7.79,0,2.43,0,3.73-1.17,3.77-3.65,0-1.1.1-2.21,0-3.3-.14-1.7.3-2.6,2.25-2.63,2.58,0,3.57-1.6,3.56-4.15q-.09-15.76,0-31.54c0-2.74-1.11-4.24-3.77-4.32-1.83-.06-2-1-2.09-2.5-.25-6.9-.28-6.9-7.33-6.9-8.39,0-8.39,0-8.38,8.36,0,.3,0,.6,0,.9-.13,6.93,1.18,6.54-6.52,5.78S110.58,86.32,104,82.24c-4.62-2.87-6-6.16-5.5-11.21.38-4.24-.06-4.37-4.27-4.37-.9,0-1.8,0-2.7,0-3,0-4.19-1.56-2.65-4.07C93,55.94,97.22,49.4,101.62,43c1.32-1.91,3.12-.68,4.72.31a5.66,5.66,0,0,0,7.56-1.2,5.73,5.73,0,0,0,.12-7.46c-1.65-2.06-4.14-3.25-6.34-1.89-3.39,2.09-6.88,1.58-10.41,1.67C95.19,34.46,93.11,34.41,90.59,34.41ZM39.88,96.54a2.54,2.54,0,0,1,.8-.28c10.53,0,19.48-4,27.88-10.12a28.62,28.62,0,0,1,33.9,0c8.06,6,16.8,9.92,27,10,1.67,0,2.29.91,1.89,2.22a2.84,2.84,0,0,1-2.08,1.65,41.32,41.32,0,0,1-24.71-8.64C93.37,82.7,79,82.14,67.62,90.59a45.41,45.41,0,0,1-24.77,9.47C39.58,100.27,39.37,100.12,39.88,96.54ZM28.41,129.81c-.07-1.25-.16-2.14-.16-3,0-14.52.06-29-.08-43.55,0-2.75.9-3.38,3.45-3.34s3.55.53,3.53,3.34c-.14,14.41-.06,28.83-.08,43.25,0,1.06-.12,2.12-.19,3.32Zm114.34.12a37.15,37.15,0,0,0-4,0c-2.26.28-2.93-.64-2.91-2.86.08-14.72.11-29.44,0-44.15,0-2.86,1.35-3,3.5-3s3.52,0,3.49,3c-.17,13.41-.07,26.83-.07,40.25ZM94.48,42.47l-5.4,8.44C87.13,43.25,88.15,41.6,94.48,42.47Zm-18.23-.36a23.29,23.29,0,0,1,4.09.06c.7.14,1.78.78,1.82,1.28.2,2.18.09,4.39.09,6.59l-.79.15Z" transform="translate(-0.62)"/><path class="cls-1" d="M39.88,96.54c-.51,3.58-.3,3.73,3,3.52a45.41,45.41,0,0,0,24.77-9.47c11.34-8.45,25.75-7.89,36.92.83a41.32,41.32,0,0,0,24.71,8.64,2.84,2.84,0,0,0,2.08-1.65c.4-1.31-.22-2.21-1.89-2.22-10.18-.11-18.92-4-27-10a28.62,28.62,0,0,0-33.9,0c-8.4,6.08-17.35,10.15-27.88,10.12A2.54,2.54,0,0,0,39.88,96.54Z" transform="translate(-0.62)"/><path class="cls-1" d="M28.41,129.81h6.47c.07-1.2.19-2.26.19-3.32,0-14.42-.06-28.84.08-43.25,0-2.81-1.07-3.3-3.53-3.34s-3.47.59-3.45,3.34c.14,14.51.07,29,.08,43.55C28.25,127.67,28.34,128.56,28.41,129.81Z" transform="translate(-0.62)"/><path class="cls-1" d="M142.75,129.93v-6.76c0-13.42-.1-26.84.07-40.25,0-3-1.4-2.93-3.49-3s-3.53.12-3.5,3c.12,14.71.09,29.43,0,44.15,0,2.22.65,3.14,2.91,2.86A37.15,37.15,0,0,1,142.75,129.93Z" transform="translate(-0.62)"/><path class="cls-1" d="M94.48,42.47c-6.33-.87-7.35.78-5.4,8.44Z" transform="translate(-0.62)"/><path class="cls-1" d="M76.25,42.11l5.21,8.08.79-.15c0-2.2.11-4.41-.09-6.59,0-.5-1.12-1.14-1.82-1.28A23.29,23.29,0,0,0,76.25,42.11Z" transform="translate(-0.62)"/></g></g></svg>