<?xml version="1.0" encoding="iso-8859-1"?>
<!-- Generator: Adobe Illustrator 19.0.0, SVG Export Plug-In . SVG Version: 6.00 Build 0)  -->
<svg version="1.1" id="Layer_1" xmlns="http://www.w3.org/2000/svg" xmlns:xlink="http://www.w3.org/1999/xlink" x="0px" y="0px"
	 viewBox="0 0 512 512" style="enable-background:new 0 0 512 512;" xml:space="preserve">
<g>
	<g>
		<path d="M493.798,324.267h-50.065v-15.932c0-10.035-8.166-18.202-18.202-18.202h-31.863c-10.035,0-18.202,8.166-18.202,18.202
			v15.932h-59.733V230.4h24.465c10.035,0,18.202-8.166,18.202-18.202v-31.863c0-10.035-8.166-18.202-18.202-18.202h-41.455
			l-26.803-46.899c-1.519-2.662-4.352-4.301-7.407-4.301V93.867h34.133c1.024,0,2.039-0.188,3.004-0.546l66.816-25.054H435.2
			c14.114,0,25.6-11.486,25.6-25.6s-11.486-25.6-25.6-25.6h-68.267c-1.024,0-2.039,0.179-3.004,0.538l-66.816,25.062h-83.78
			c-4.719,0-8.533,3.814-8.533,8.533v34.133c0,4.719,3.814,8.533,8.533,8.533h34.133v17.067c-3.055,0-5.888,1.638-7.407,4.301
			l-26.803,46.899h-41.455c-10.035,0-18.202,8.166-18.202,18.202v31.863c0,10.035,8.166,18.202,18.202,18.202h24.465v93.867h-59.733
			v-15.932c0-10.035-8.166-18.202-18.202-18.202H86.468c-10.035,0-18.202,8.166-18.202,18.202v15.932H18.202
			C8.166,324.267,0,332.433,0,342.468v100.13C0,452.634,8.166,460.8,18.202,460.8h50.065v15.932
			c0,10.035,8.166,18.202,18.202,18.202h31.863c10.035,0,18.202-8.166,18.202-18.202V460.8h238.933v15.932
			c0,10.035,8.166,18.202,18.202,18.202h31.863c10.035,0,18.202-8.166,18.202-18.202V460.8h50.065
			c10.035,0,18.202-8.166,18.202-18.202v-100.13C512,332.433,503.834,324.267,493.798,324.267z M119.467,332.8v119.467v24.465
			c0,0.623-0.512,1.135-1.135,1.135H86.468c-0.623,0-1.135-0.512-1.135-1.135v-24.465V332.8v-24.465
			c0-0.631,0.512-1.135,1.135-1.135h31.863c0.623,0,1.135,0.503,1.135,1.135V332.8z M252.416,128h7.168l19.499,34.133h-46.165
			L252.416,128z M171.802,213.333c-0.623,0-1.135-0.512-1.135-1.135v-31.863c0-0.631,0.512-1.135,1.135-1.135h46.404h75.588h46.404
			c0.623,0,1.135,0.503,1.135,1.135v31.863c0,0.623-0.512,1.135-1.135,1.135h-24.465H196.267H171.802z M426.667,332.8v119.467
			v24.465c0,0.623-0.512,1.135-1.135,1.135h-31.863c-0.623,0-1.135-0.512-1.135-1.135v-24.465V332.8v-24.465
			c0-0.631,0.512-1.135,1.135-1.135h31.863c0.623,0,1.135,0.503,1.135,1.135V332.8z"/>
	</g>
</g>
<g>
</g>
<g>
</g>
<g>
</g>
<g>
</g>
<g>
</g>
<g>
</g>
<g>
</g>
<g>
</g>
<g>
</g>
<g>
</g>
<g>
</g>
<g>
</g>
<g>
</g>
<g>
</g>
<g>
</g>
</svg>
